<svg width="506" height="77" viewBox="0 0 506 77" fill="none" xmlns="http://www.w3.org/2000/svg">
<path d="M37.51 62.61C37.3957 62.4304 37.2722 62.2568 37.14 62.09C36.9746 61.8541 36.7638 61.6536 36.52 61.5C36.3191 61.3631 36.0831 61.2867 35.84 61.28C35.7332 61.2834 35.628 61.3072 35.53 61.35L35.88 62.09C35.9958 62.0499 36.1175 62.0296 36.24 62.03C36.3644 62.0303 36.4872 62.0576 36.6 62.11C36.7096 62.1503 36.8064 62.2194 36.88 62.31L37.7 63.39C37.93 63.39 37.86 63.13 37.51 62.61Z" fill="#B81F53"/>
<path d="M21.02 67.2601L21.8 67.6901V64.0801H22.58L22.16 63.3901H2.75001L3.18001 64.0801H3.35001V65.6901L2.48001 65.2601C2.56602 65.1725 2.63099 65.0665 2.67001 64.9501C2.71783 64.8292 2.7416 64.7001 2.74001 64.5701C2.72188 64.2191 2.56762 63.8891 2.31001 63.6501C2.20458 63.5167 2.07305 63.4062 1.92346 63.3254C1.77387 63.2446 1.60937 63.1951 1.44001 63.1801C1.17982 63.1678 0.925082 63.2575 0.730009 63.4301C0.639346 63.506 0.566402 63.6008 0.516302 63.7079C0.466202 63.8151 0.440163 63.9318 0.44001 64.0501C0.462016 64.2772 0.556705 64.4911 0.710009 64.6601C0.915271 64.8815 1.16371 65.0584 1.44001 65.1801C0.983485 65.4639 0.505343 65.7113 0.0100098 65.9201L0.620008 66.4401C1.19128 66.1717 1.72843 65.836 2.22001 65.4401L2.91001 65.7901L0.910009 67.0501L1.47001 67.5301L3.38001 66.2301V67.2301L4.16001 67.6601V64.1101H8.81001V64.7201H7.86001C7.71095 64.7157 7.56265 64.7429 7.4248 64.7997C7.28695 64.8566 7.16264 64.9419 7.06001 65.0501C6.95514 65.1552 6.87202 65.28 6.81539 65.4172C6.75877 65.5545 6.72975 65.7016 6.73001 65.8501C6.76373 66.3136 6.97941 66.745 7.33001 67.0501C7.46786 67.2255 7.64006 67.371 7.83608 67.4776C8.0321 67.5842 8.24781 67.6497 8.47001 67.6701C8.47001 67.6701 8.54001 67.6701 8.62001 67.6701H8.73001C8.65076 67.9725 8.50371 68.2529 8.30001 68.4901C8.23427 68.5811 8.14892 68.6563 8.05027 68.7099C7.95161 68.7636 7.84217 68.7944 7.73001 68.8001C7.68515 68.8018 7.64046 68.7937 7.59902 68.7765C7.55758 68.7592 7.52039 68.7331 7.49001 68.7001C7.45796 68.6689 7.43257 68.6316 7.41538 68.5903C7.39819 68.5491 7.38956 68.5048 7.39001 68.4601C7.39212 68.4061 7.4057 68.3533 7.42984 68.305C7.45398 68.2567 7.48813 68.2141 7.53001 68.1801C7.64186 68.0884 7.77113 68.0204 7.91001 67.9801L7.22001 67.5501C7.1139 67.5739 7.01468 67.6218 6.93001 67.6901C6.85704 67.7404 6.80398 67.8147 6.78001 67.9001C6.55556 67.9165 6.33086 67.8716 6.13001 67.7701C6.27546 67.7253 6.39978 67.6294 6.48001 67.5001C6.56607 67.3771 6.61153 67.2302 6.61001 67.0801C6.61274 66.9836 6.5955 66.8876 6.55936 66.7981C6.52322 66.7086 6.46897 66.6276 6.40001 66.5601C6.34054 66.4885 6.26546 66.4314 6.18053 66.3932C6.09559 66.3551 6.00306 66.3369 5.91001 66.3401C5.68314 66.3335 5.46201 66.412 5.29001 66.5601C5.21021 66.6297 5.14652 66.7159 5.10335 66.8126C5.06018 66.9093 5.03857 67.0142 5.04001 67.1201C5.05472 67.2781 5.10684 67.4304 5.19204 67.5642C5.27725 67.6981 5.39309 67.8098 5.53001 67.8901C5.89182 68.1068 6.3085 68.2145 6.73001 68.2001C6.67001 68.4201 6.78001 68.6301 7.07001 68.8401C7.36181 69.0473 7.71217 69.1559 8.07001 69.1501C8.30491 69.1477 8.53149 69.0628 8.71001 68.9101C8.925 68.7296 9.09312 68.4997 9.20001 68.2401L9.55001 68.9801L10.03 68.7601L9.38001 67.6801C9.49224 67.6505 9.59102 67.5834 9.66001 67.4901C9.73016 67.3942 9.76862 67.2789 9.77001 67.1601C9.7597 66.9664 9.68186 66.7824 9.55001 66.6401C9.51958 66.5505 9.46838 66.4693 9.4006 66.4033C9.33282 66.3373 9.25038 66.2882 9.16001 66.2601C9.01711 66.255 8.87651 66.2972 8.76001 66.3801C8.70867 66.4141 8.66638 66.4601 8.63676 66.5141C8.60715 66.5681 8.5911 66.6285 8.59001 66.6901C8.59769 66.8294 8.64258 66.964 8.72001 67.0801C8.56215 67.1788 8.37386 67.217 8.19 67.1876C8.00615 67.1582 7.83917 67.0632 7.72001 66.9201C7.54013 66.7281 7.44312 66.473 7.45001 66.2101C7.44774 65.9977 7.52232 65.7918 7.66001 65.6301C7.71797 65.5554 7.79226 65.4949 7.87719 65.4533C7.96212 65.4117 8.05544 65.3901 8.15001 65.3901H9.56001V64.0901H10.79V67.2601L11.57 67.7801V64.1301H15.16V65.2601C14.9739 65.0303 14.7467 64.837 14.49 64.6901C14.271 64.5618 14.0236 64.4897 13.77 64.4801C13.4567 64.4626 13.1487 64.5664 12.91 64.7701C12.7984 64.8518 12.7077 64.9587 12.6451 65.0821C12.5826 65.2054 12.55 65.3418 12.55 65.4801C12.5662 65.6739 12.6216 65.8625 12.7126 66.0343C12.8037 66.2062 12.9287 66.3578 13.08 66.4801C13.3367 66.7706 13.6941 66.9529 14.08 66.9901C14.2698 66.9898 14.4573 66.9489 14.63 66.8701C14.8176 66.7918 14.9851 66.6722 15.12 66.5201V67.2601L15.9 67.7801V64.1401H17.24V67.2601L18.02 67.7801V64.1401H21.02V65.2601H19.26C19.2151 65.2577 19.1702 65.2654 19.1286 65.2827C19.0871 65.3 19.05 65.3265 19.02 65.3601C18.988 65.3912 18.9626 65.4286 18.9454 65.4698C18.9282 65.5111 18.9196 65.5554 18.92 65.6001C18.9286 65.8399 19.0126 66.0708 19.16 66.2601C19.3467 66.5001 19.5167 66.6201 19.67 66.6201C19.6872 66.6281 19.706 66.6323 19.725 66.6323C19.744 66.6323 19.7628 66.6281 19.78 66.6201C19.7993 66.6067 19.8148 66.5887 19.8253 66.5677C19.8358 66.5468 19.8409 66.5235 19.84 66.5001V66.2001C19.839 66.1723 19.8439 66.1446 19.8542 66.1188C19.8645 66.0929 19.8801 66.0695 19.9 66.0501C19.9106 66.0298 19.9263 66.0126 19.9456 66.0003C19.9649 65.988 19.9871 65.981 20.01 65.9801H20.96V67.2601H21.02ZM2.02001 64.7101C1.96512 64.8376 1.86555 64.9407 1.74001 65.0001C1.58643 64.9554 1.45469 64.8558 1.37001 64.7201C1.27421 64.6009 1.22137 64.453 1.22001 64.3001C1.22136 64.2378 1.23535 64.1764 1.26113 64.1197C1.28692 64.063 1.32396 64.0121 1.37001 63.9701C1.46907 63.8738 1.60184 63.8199 1.74001 63.8201C1.84391 63.8199 1.94399 63.8593 2.02001 63.9301C2.07014 63.9681 2.10944 64.0185 2.134 64.0764C2.15857 64.1343 2.16753 64.1976 2.16001 64.2601C2.17371 64.434 2.13542 64.608 2.05001 64.7601L2.02001 64.7101ZM5.60001 67.2601C5.52901 67.1841 5.48951 67.0841 5.48951 66.9801C5.48951 66.8761 5.52901 66.776 5.60001 66.7001C5.63638 66.6632 5.68009 66.6343 5.72832 66.6153C5.77656 66.5964 5.82824 66.5878 5.88001 66.5901C5.98391 66.59 6.08399 66.6293 6.16001 66.7001C6.19693 66.7365 6.2258 66.7802 6.24475 66.8284C6.2637 66.8766 6.27231 66.9283 6.27001 66.9801C6.27015 67.084 6.23083 67.1841 6.16001 67.2601C6.12364 67.297 6.07993 67.3259 6.03169 67.3448C5.98346 67.3638 5.93178 67.3724 5.88001 67.3701C5.82838 67.3712 5.77704 67.3621 5.72898 67.3432C5.68091 67.3243 5.63707 67.296 5.60001 67.2601ZM14.45 66.1901C14.2232 66.3038 13.9737 66.3653 13.72 66.3701C13.564 66.3694 13.4126 66.3166 13.29 66.2201C13.2383 66.1818 13.196 66.1321 13.1666 66.0749C13.1371 66.0177 13.1212 65.9544 13.12 65.8901C13.12 65.7001 13.24 65.5201 13.48 65.3501C13.7207 65.1925 14.0023 65.1091 14.29 65.1101C14.4524 65.1186 14.6103 65.1667 14.75 65.2501C14.9204 65.3504 15.0726 65.4789 15.2 65.6301C14.979 65.8527 14.7263 66.0414 14.45 66.1901Z" fill="#B81F53"/>
<path d="M21.83 68.2001C21.6684 68.0424 21.4626 67.9378 21.24 67.9001C21.1272 67.8849 21.0128 67.8849 20.9 67.9001C20.8 67.9343 20.7081 67.9888 20.63 68.0601L20.93 68.5401C20.9933 68.4894 21.0642 68.449 21.14 68.4201C21.2161 68.4071 21.2939 68.4071 21.37 68.4201C21.57 68.4201 21.96 68.7401 22.55 69.4201L23.02 69.9101L23.28 69.6901C22.93 69.3101 22.45 68.8301 21.83 68.2501" fill="#B81F53"/>
<path d="M37.7 63.3899H32.16L32.59 64.0799H33.46V65.5499H32.29V64.2599C32.2809 64.105 32.2408 63.9535 32.1721 63.8143C32.1034 63.6752 32.0074 63.5513 31.89 63.4499C31.7876 63.3303 31.6623 63.2324 31.5214 63.162C31.3806 63.0916 31.2271 63.0501 31.07 63.0399C30.9636 63.0367 30.8576 63.0544 30.7581 63.0922C30.6586 63.1299 30.5675 63.1869 30.49 63.2599C30.414 63.332 30.3535 63.4189 30.3122 63.5151C30.271 63.6114 30.2498 63.7151 30.25 63.8199C30.245 63.8898 30.245 63.96 30.25 64.0299L29.86 63.3399H24.86L25.25 64.0299H28.42V64.5899C28.2908 64.6032 28.1687 64.6555 28.07 64.7399C27.9205 64.8604 27.7891 65.0019 27.68 65.1599C27.5419 64.9809 27.3725 64.8284 27.18 64.7099C27.0263 64.6137 26.8494 64.5611 26.6681 64.5577C26.4868 64.5544 26.308 64.6003 26.1509 64.6907C25.9937 64.7811 25.8641 64.9125 25.7759 65.0709C25.6876 65.2293 25.6441 65.4087 25.65 65.5899C25.6576 65.9589 25.7958 66.3132 26.04 66.5899C26.3477 66.9756 26.7118 67.3127 27.12 67.5899L27.34 67.3299C27.0755 67.114 26.8432 66.8614 26.65 66.5799C26.5103 66.3789 26.4273 66.144 26.41 65.8999C26.4029 65.7118 26.4632 65.5274 26.58 65.3799C26.6269 65.312 26.6897 65.2564 26.7629 65.2181C26.836 65.1798 26.9174 65.1598 27 65.1599C27.0987 65.1619 27.1952 65.1894 27.28 65.2399C27.3786 65.2945 27.4613 65.3737 27.52 65.4699C27.4069 65.694 27.3067 65.9243 27.22 66.1599L27.91 66.4599C27.9817 66.1001 28.1282 65.7594 28.34 65.4599C28.4049 65.3541 28.4941 65.2654 28.6002 65.2011C28.7063 65.1367 28.8262 65.0986 28.95 65.0899C29.0614 65.0892 29.17 65.1242 29.26 65.1899C29.2972 65.2178 29.3275 65.2541 29.3483 65.2957C29.3691 65.3374 29.38 65.3833 29.38 65.4299C29.3694 65.6686 29.2736 65.8957 29.11 66.0699C28.8945 66.3448 28.6341 66.5815 28.34 66.7699L28.99 67.3799C29.2422 67.1206 29.4576 66.8279 29.63 66.5099C29.7694 66.2726 29.8484 66.0048 29.86 65.7299C29.8645 65.4814 29.8024 65.2362 29.68 65.0199C29.5838 64.8242 29.4152 64.6736 29.21 64.5999V63.9899H30.3C30.3568 64.2032 30.471 64.3968 30.63 64.5499C30.8779 64.7852 31.192 64.9388 31.53 64.9899V65.4699H31.27C31.1938 65.4666 31.119 65.4915 31.06 65.5399C31.0044 65.5887 30.9687 65.6564 30.96 65.7299C31.052 65.9695 31.1983 66.1845 31.3874 66.358C31.5766 66.5315 31.8034 66.6588 32.05 66.7299C32.0872 66.7291 32.1238 66.7197 32.1568 66.7023C32.1898 66.685 32.2183 66.6602 32.24 66.6299C32.2912 66.5608 32.3161 66.4757 32.31 66.3899V66.2599H33.52V67.2599L34.3 67.6899V64.0499H37.46V64.6599H36.31C36.0498 64.6476 35.7951 64.7373 35.6 64.9099C35.5093 64.9858 35.4364 65.0806 35.3863 65.1878C35.3362 65.2949 35.3101 65.4116 35.31 65.5299C35.3204 65.9013 35.4198 66.2649 35.6 66.5899C35.8055 67.0003 36.0757 67.3751 36.4 67.6999L36.66 67.5299C36.4454 67.3303 36.2691 67.093 36.14 66.8299C36.0277 66.5887 35.9697 66.3259 35.97 66.0599C35.975 65.8758 36.0504 65.7007 36.1806 65.5705C36.3108 65.4403 36.4859 65.3649 36.67 65.3599H37.45V67.1799L38.23 67.6999V64.0599H39.01L38.62 63.3699H37.7V63.3899ZM31.5 64.7799C31.3539 64.742 31.2284 64.6488 31.15 64.5199C31.058 64.3772 31.0126 64.2095 31.02 64.0399C31.0245 63.92 31.0588 63.8031 31.12 63.6999C31.1402 63.6606 31.1701 63.6272 31.2069 63.6027C31.2436 63.5782 31.286 63.5635 31.33 63.5599C31.3581 63.5613 31.385 63.5718 31.4067 63.5899C31.4283 63.6079 31.4435 63.6325 31.45 63.6599C31.4896 63.7333 31.507 63.8167 31.5 63.8999V64.7799Z" fill="#B81F53"/>
<path d="M54.76 67.26L55.54 67.78V64.09H56.32L55.93 63.4H41.27L41.66 64.09H44.66V64.7H42.25L42.16 64.96C42.4904 65.0456 42.7933 65.2143 43.04 65.45C43.1424 65.5424 43.2245 65.6549 43.2813 65.7805C43.3381 65.9061 43.3683 66.0421 43.37 66.18C43.3685 66.239 43.3532 66.2968 43.3254 66.3489C43.2977 66.401 43.2582 66.4458 43.21 66.48C43.0922 66.576 42.9505 66.6382 42.8 66.66C42.7599 66.5695 42.6937 66.4929 42.61 66.44C42.5404 66.3874 42.4571 66.3561 42.37 66.35C42.3173 66.3476 42.2648 66.3572 42.2163 66.3779C42.1678 66.3987 42.1246 66.4302 42.09 66.47C42.0147 66.5552 41.9752 66.6663 41.98 66.78C41.9821 66.872 42.0081 66.9619 42.0554 67.0408C42.1028 67.1197 42.1698 67.1849 42.25 67.23C42.4361 67.3642 42.6607 67.4343 42.89 67.43L43.41 68.6L43.8 68.38L43.11 67.38C43.3421 67.3445 43.5581 67.2399 43.73 67.08C43.8052 67.0136 43.8654 66.9321 43.9068 66.8407C43.9482 66.7494 43.9697 66.6503 43.97 66.55C43.9677 66.3262 43.9018 66.1077 43.78 65.92C43.6576 65.7036 43.4864 65.5187 43.28 65.38H44.67V67.26L45.45 67.69V64.08H46.79V67.2L47.57 67.72V64.08H50.57V65.26H48.76C48.7153 65.2595 48.671 65.2682 48.6298 65.2854C48.5885 65.3026 48.5512 65.3279 48.52 65.36C48.488 65.3911 48.4626 65.4285 48.4454 65.4697C48.4282 65.511 48.4196 65.5553 48.42 65.6C48.4314 65.8505 48.5264 66.0899 48.69 66.28C48.87 66.52 49.04 66.64 49.2 66.64C49.2172 66.648 49.236 66.6522 49.255 66.6522C49.274 66.6522 49.2928 66.648 49.31 66.64C49.3293 66.6266 49.3448 66.6086 49.3553 66.5876C49.3658 66.5667 49.3709 66.5434 49.37 66.52V66.22C49.369 66.1922 49.3739 66.1645 49.3842 66.1387C49.3945 66.1128 49.4101 66.0894 49.43 66.07C49.4406 66.0497 49.4563 66.0325 49.4756 66.0202C49.4949 66.0079 49.5171 66.0009 49.54 66H50.54V67.26L51.32 67.69V64.08H52.72V65.55H52.46C52.4312 65.5488 52.4026 65.5545 52.3765 65.5667C52.3504 65.5789 52.3276 65.5972 52.31 65.62C52.2865 65.637 52.2678 65.6596 52.2555 65.6859C52.2433 65.7122 52.2379 65.7411 52.24 65.77C52.24 65.9 52.39 66.12 52.68 66.41C52.97 66.7 53.19 66.85 53.32 66.85C53.3432 66.8502 53.3658 66.8437 53.3854 66.8312C53.4049 66.8188 53.4204 66.801 53.43 66.78C53.4691 66.7244 53.4901 66.658 53.49 66.59V66.26H54.79V67.26H54.76ZM53.46 64.13H54.76V65.56H53.46V64.13Z" fill="#B81F53"/>
<path d="M55.57 68.2001C55.4084 68.0424 55.2026 67.9378 54.98 67.9001C54.8672 67.8849 54.7528 67.8849 54.64 67.9001C54.54 67.9343 54.4481 67.9888 54.37 68.0601L54.67 68.5401C54.7333 68.4894 54.8042 68.449 54.88 68.4201C54.9561 68.4071 55.0339 68.4071 55.11 68.4201C55.31 68.4201 55.7 68.7401 56.29 69.4201L56.76 69.9101L57.02 69.6901C56.67 69.3101 56.19 68.8301 55.57 68.2501" fill="#B81F53"/>
<path d="M35.02 33.82L34.17 34.1C34.5141 34.2945 34.9048 34.3913 35.3 34.38H35.39H35.6H47.66C47.79 34.05 47.91 33.71 48.03 33.38H36.03C35.7104 33.5561 35.3757 33.7034 35.03 33.82" fill="#B81F53"/>
<path d="M21.61 34.37H21.68C22.0855 34.3897 22.4881 34.2925 22.84 34.09L21.99 33.81C21.6436 33.6951 21.3088 33.5477 20.99 33.37H8.98999C9.09999 33.71 9.22999 34.05 9.35999 34.37H21.61Z" fill="#B81F53"/>
<path d="M35.67 35.26C34.9388 35.6546 34.1208 35.8609 33.29 35.86C33.2108 35.8759 33.1292 35.8759 33.05 35.86C32.555 36.0937 32.0243 36.2424 31.48 36.3H46.81C46.98 35.97 47.15 35.63 47.3 35.3H35.67" fill="#B81F53"/>
<path d="M23.98 35.86C23.9008 35.8759 23.8192 35.8759 23.74 35.86C22.9138 35.8586 22.1004 35.6561 21.37 35.27H9.64001C9.79001 35.61 9.96001 35.95 10.13 36.27H25.56C25.0127 36.2113 24.4789 36.0626 23.98 35.83" fill="#B81F53"/>
<path d="M5.53999 26.8901C5.03226 27.0087 4.59091 27.3208 4.30999 27.7601C3.30999 29.3401 4.03999 32.5301 4.64999 35.1001C4.86999 36.0201 5.06999 36.8901 5.15999 37.5301C5.15999 37.6401 5.15999 37.7601 5.20999 37.8801C5.37302 38.6228 5.39338 39.3898 5.26999 40.1401L5.21999 40.3201H5.39999C6.10915 40.594 6.76299 40.9937 7.32999 41.5001L7.60999 41.7201C8.12999 42.1201 8.77999 42.7201 9.45999 43.3801C11.34 45.1501 13.66 47.3801 15.52 47.3801H15.65C16.1797 47.3505 16.6777 47.1177 17.04 46.7301C16.9583 46.9805 16.9268 47.2445 16.9474 47.5071C16.968 47.7696 17.0402 48.0255 17.16 48.2601C18.01 49.9401 21.16 50.8801 23.69 51.6401C24.6 51.9101 25.45 52.1701 26.05 52.4201L26.38 52.5501C27.1094 52.7794 27.7882 53.1459 28.38 53.6301L28.51 53.7601L28.64 53.6301C29.2354 53.1514 29.9132 52.7854 30.64 52.5501L30.97 52.4201C31.57 52.1701 32.43 51.9101 33.33 51.6401C35.86 50.8801 39.01 49.9401 39.86 48.2601C40.1024 47.7905 40.1492 47.244 39.99 46.7401C40.3506 47.1157 40.8401 47.3408 41.36 47.3701H41.49C43.35 47.3701 45.68 45.1801 47.55 43.3701C48.24 42.7201 48.89 42.1101 49.4 41.7101L49.68 41.4901C50.242 40.982 50.8929 40.582 51.6 40.3101H51.78L51.73 40.1401C51.6122 39.3894 51.6325 38.6235 51.79 37.8801C51.79 37.7601 51.79 37.6401 51.84 37.5201C51.93 36.8701 52.13 36.0101 52.35 35.0901C52.96 32.5201 53.72 29.3201 52.68 27.7501C52.3963 27.3028 51.9467 26.9863 51.43 26.8701C51.9377 26.7515 52.3791 26.4393 52.66 26.0001C53.66 24.4201 52.93 21.2301 52.32 18.6601C52.1 17.7401 51.9 16.8701 51.81 16.2301C51.81 16.1201 51.81 16.0001 51.76 15.8801C51.597 15.1374 51.5766 14.3704 51.7 13.6201V13.4401H51.52C50.8129 13.1682 50.162 12.7681 49.6 12.2601L49.32 12.0401C48.8 11.6401 48.15 11.0401 47.47 10.3801C45.59 8.61006 43.27 6.38006 41.41 6.38006H41.28C40.7502 6.40966 40.2523 6.64246 39.89 7.03006C40.0406 6.53096 39.9904 5.99266 39.75 5.53006C38.9 3.85005 35.75 2.91005 33.22 2.15005C32.32 1.88005 31.46 1.62005 30.86 1.37005L30.58 1.26005C29.8506 1.03077 29.1718 0.664188 28.58 0.180048L28.46 0.0500488L28.33 0.180048C27.7346 0.658698 27.0568 1.02469 26.33 1.26005L26 1.39005C25.4 1.64005 24.54 1.90005 23.64 2.17005C21.11 2.93005 17.96 3.87005 17.11 5.55006C16.8675 6.01966 16.8208 6.56606 16.98 7.07006C16.6194 6.69446 16.1299 6.46936 15.61 6.44006C13.73 6.33006 11.34 8.59006 9.41999 10.4401C8.72999 11.0901 8.07999 11.7001 7.56999 12.1001L7.28999 12.3201C6.72799 12.8281 6.0771 13.2282 5.36999 13.5001H5.18999L5.23999 13.6801C5.34511 14.4156 5.31802 15.1641 5.15999 15.8901C5.15999 16.0101 5.15999 16.1301 5.10999 16.2401C5.01999 16.8801 4.81999 17.7501 4.59999 18.6701C3.98999 21.2401 3.22999 24.4401 4.25999 26.0101C4.54135 26.4552 4.98692 26.7714 5.49999 26.8901H5.53999ZM28.46 4.26006C32.9308 4.23826 37.3075 5.54366 41.036 8.01086C44.7644 10.478 47.677 13.9961 49.4048 18.1196C51.1326 22.2431 51.598 26.7865 50.7421 31.1747C49.8862 35.5628 47.7474 39.5983 44.5965 42.7702C41.4457 45.942 37.4245 48.1076 33.0422 48.9927C28.6598 49.8778 24.1133 49.4426 19.9785 47.7423C15.8436 46.0419 12.3062 43.1528 9.81431 39.4408C7.32239 35.7289 5.98796 31.3609 5.97999 26.8901C5.96139 20.9085 8.31906 15.1644 12.5346 10.9207C16.7501 6.67706 22.4784 4.28126 28.46 4.26006Z" fill="#B81F53"/>
<path d="M20.27 45.79H36.66C37.3465 45.498 38.0145 45.164 38.66 44.79H18.25C18.8966 45.1621 19.5644 45.496 20.25 45.79" fill="#B81F53"/>
<path d="M28.46 47.4899C30.4049 47.4875 32.3401 47.2149 34.21 46.6799H22.72C24.5864 47.2153 26.5183 47.488 28.46 47.4899Z" fill="#B81F53"/>
<path d="M33.46 26.8999C33.1349 26.7152 32.7633 26.6284 32.39 26.6499C32.1676 26.6506 31.9461 26.6775 31.73 26.7299C31.3925 26.8161 31.0843 26.9915 30.838 27.2379C30.5916 27.4842 30.4162 27.7923 30.33 28.1299C30.5814 28.4398 30.852 28.7337 31.14 29.0099C31.7918 29.4921 32.2296 30.2097 32.36 31.0099C32.3693 31.3767 32.3011 31.7413 32.16 32.0799C32.0168 32.3997 31.81 32.6871 31.5521 32.9243C31.2942 33.1616 30.9907 33.3438 30.66 33.4599C31.9914 33.5181 33.2988 33.0918 34.34 32.2599C34.5613 32.0277 34.7288 31.7496 34.8307 31.4455C34.9327 31.1414 34.9666 30.8186 34.93 30.4999C34.808 29.9651 34.5417 29.4739 34.16 29.0799C33.67 28.4099 33.16 27.7199 33.45 26.9199" fill="#B81F53"/>
<path d="M35.83 27.3499C35.4664 27.3467 35.1048 27.4041 34.76 27.5199C34.4275 27.5956 34.1289 27.7783 33.91 28.0399C34.0721 28.3333 34.2559 28.614 34.46 28.8799C34.8774 29.3405 35.1579 29.9085 35.27 30.5199C35.3055 30.8833 35.2622 31.25 35.1432 31.5952C35.0241 31.9403 34.832 32.2557 34.58 32.5199C33.7449 33.2483 32.6871 33.6714 31.58 33.7199H31.88C33.5476 33.837 35.2045 33.3742 36.57 32.4099C36.8515 32.1849 37.0755 31.8962 37.2233 31.5676C37.3711 31.2389 37.4385 30.8798 37.42 30.5199C37.3532 30.0525 37.1517 29.6146 36.84 29.2599C36.48 28.7499 36.07 28.1799 36.53 27.3999C36.3035 27.3304 36.0668 27.3 35.83 27.3099" fill="#B81F53"/>
<path d="M31.86 31.95C31.9791 31.6552 32.0304 31.3373 32.01 31.02C31.8788 30.3129 31.4816 29.683 30.9 29.26C30.2779 28.6846 29.7573 28.0085 29.36 27.26L29.3 27.13C29.06 26.53 28.89 26.13 28.49 26.13C28.09 26.13 27.91 26.53 27.67 27.13C27.2216 27.9257 26.6702 28.6587 26.03 29.31C25.4934 29.7296 25.1361 30.3372 25.03 31.01C25.0096 31.3273 25.0609 31.6452 25.18 31.94C25.59 33 27.18 33.48 28.49 33.48H28.59C29.95 33.48 31.49 32.99 31.9 31.93" fill="#B81F53"/>
<path d="M22.08 30.54C22.0494 30.8522 22.0863 31.1674 22.1881 31.4641C22.2899 31.7609 22.4542 32.0323 22.67 32.26C23.7168 33.0776 25.0236 33.4895 26.35 33.42C26.0139 33.3074 25.7045 33.1268 25.4413 32.8894C25.178 32.6519 24.9666 32.3628 24.82 32.04C24.6891 31.6991 24.6312 31.3346 24.65 30.97C24.7804 30.1698 25.2182 29.4522 25.87 28.97C26.1583 28.694 26.4288 28.4001 26.68 28.09C26.5882 27.7552 26.4109 27.4501 26.1654 27.2046C25.9199 26.9591 25.6148 26.7818 25.28 26.69C25.0639 26.6376 24.8424 26.6107 24.62 26.61C24.2467 26.5885 23.8751 26.6753 23.55 26.86C23.85 27.66 23.34 28.35 22.85 29.02C22.4717 29.4293 22.2124 29.9341 22.1 30.48" fill="#B81F53"/>
<path d="M19.6 30.54C19.5815 30.8999 19.6489 31.259 19.7967 31.5877C19.9445 31.9163 20.1685 32.205 20.45 32.43C21.8188 33.4034 23.4852 33.8669 25.16 33.74H25.46C24.3529 33.6915 23.2951 33.2684 22.46 32.54C22.208 32.2758 22.0159 31.9604 21.8968 31.6153C21.7778 31.2701 21.7345 30.9034 21.77 30.54C21.8801 29.9279 22.1608 29.3594 22.58 28.9C22.7865 28.6359 22.9704 28.3549 23.13 28.06C22.9111 27.7984 22.6125 27.6157 22.28 27.54C21.9202 27.4144 21.541 27.3535 21.16 27.36C20.924 27.3533 20.6883 27.3803 20.46 27.44C20.6131 27.7351 20.6667 28.0718 20.6126 28.3999C20.5585 28.7279 20.3997 29.0297 20.16 29.26C19.8571 29.6103 19.6626 30.0411 19.6 30.5" fill="#B81F53"/>
<path d="M24.39 34.61L24.59 34.48C24.6952 34.4033 24.7923 34.3162 24.88 34.22L25.01 34.09C24.6191 34.0872 24.2285 34.0638 23.84 34.02H23.77L23.62 34.14C23.3643 34.3829 23.0629 34.5725 22.7333 34.6978C22.4037 34.8231 22.0525 34.8817 21.7 34.87C22.3456 35.1836 23.0524 35.3509 23.77 35.36C23.86 35.36 23.87 35.36 23.87 35.3C23.86 35.2505 23.86 35.1995 23.87 35.15C23.93 34.9 24.16 34.75 24.43 34.58" fill="#B81F53"/>
<path d="M25.71 35.8301C25.9022 35.831 26.0937 35.8074 26.28 35.76C26.3662 35.7433 26.4439 35.6975 26.5 35.6301L26.4 35.5C26.2471 35.2862 26.1699 35.0275 26.1807 34.7648C26.1916 34.5021 26.2899 34.2505 26.46 34.05H26.06C25.41 34.13 25.28 34.2701 25.12 34.4501C25.0205 34.5676 24.9062 34.6717 24.78 34.76L24.58 34.89C24.37 35.02 24.18 35.15 24.16 35.25C24.14 35.35 24.16 35.32 24.16 35.37C24.591 35.692 25.1234 35.8483 25.66 35.8101" fill="#B81F53"/>
<path d="M28.5 33.86C27.5 33.86 26.99 33.99 26.73 34.28C26.6181 34.4226 26.5573 34.5987 26.5573 34.78C26.5573 34.9613 26.6181 35.1373 26.73 35.28C26.7711 35.341 26.818 35.3979 26.87 35.45C27.0184 35.5575 27.1841 35.6386 27.36 35.69C27.6151 35.7556 27.8512 35.8803 28.0492 36.054C28.2473 36.2278 28.4017 36.4456 28.5 36.69C28.5983 36.4456 28.7527 36.2278 28.9507 36.054C29.1488 35.8803 29.3849 35.7556 29.64 35.69C29.8142 35.6345 29.9793 35.5536 30.13 35.45C30.1871 35.4028 30.2346 35.3451 30.27 35.28C30.3772 35.1353 30.435 34.96 30.435 34.78C30.435 34.5999 30.3772 34.4247 30.27 34.28C30.01 34 29.45 33.86 28.5 33.86Z" fill="#B81F53"/>
<path d="M30.51 35.62C30.5676 35.6857 30.6447 35.7312 30.73 35.75C30.9153 35.8022 31.1076 35.8258 31.3 35.82C31.8402 35.8621 32.3763 35.6977 32.8 35.36C32.8102 35.3207 32.8102 35.2794 32.8 35.24C32.8 35.14 32.58 35.01 32.38 34.88L32.18 34.75C32.0538 34.6617 31.9395 34.5575 31.84 34.44C31.68 34.26 31.55 34.13 30.9 34.04H30.5C30.6701 34.2405 30.7684 34.492 30.7793 34.7547C30.7902 35.0174 30.713 35.2762 30.56 35.49C30.535 35.5451 30.5012 35.5957 30.46 35.64" fill="#B81F53"/>
<path d="M33.28 35.3801C33.9982 35.376 34.7061 35.2085 35.35 34.8901C34.6407 34.9087 33.9521 34.6505 33.43 34.1701L33.28 34.0501C33.2689 34.0454 33.257 34.043 33.245 34.043C33.233 34.043 33.2211 34.0454 33.21 34.0501C32.83 34.0501 32.43 34.1101 32.04 34.1201L32.16 34.2601C32.2477 34.3563 32.3448 34.4434 32.45 34.5201L32.65 34.6501C32.92 34.8201 33.16 34.9701 33.21 35.2201C33.2199 35.2696 33.2199 35.3206 33.21 35.3701C33.21 35.3701 33.21 35.3701 33.31 35.3701" fill="#B81F53"/>
<path d="M24.16 42.0001C24.26 42.0001 25.7 42.4601 25.96 42.5001C26.1829 42.5552 26.415 42.5623 26.6408 42.521C26.8667 42.4796 27.0811 42.3907 27.27 42.2601L27.35 42.1901C27.4136 42.1174 27.4673 42.0367 27.51 41.9501C27.7 41.4701 27.24 40.8801 25.8 40.5301C23.6971 40.0588 21.5137 40.0793 19.42 40.5901C18.35 40.9001 17.9 41.3501 17.91 41.8001C17.9148 41.9263 17.9491 42.0495 18.01 42.1601C18.1687 42.4078 18.3848 42.6137 18.64 42.7601C18.792 42.8525 18.9528 42.9296 19.12 42.9901C19.4589 43.1079 19.8067 43.1982 20.16 43.2601C21.2997 43.4775 22.4616 43.5548 23.62 43.4901C25.22 43.4001 25.11 42.9101 24.76 42.7001C24.4975 42.5589 24.2437 42.4019 24 42.2301C23.78 42.0701 23.92 41.9001 24.13 41.9901" fill="#B81F53"/>
<path d="M25.35 42.78V42.88C25.37 42.9723 25.37 43.0677 25.35 43.16C25.22 43.68 24.52 43.84 23.89 43.9H40.09C40.56 43.58 41.01 43.24 41.45 42.9H25.74C25.6124 42.8554 25.4821 42.8187 25.35 42.79" fill="#B81F53"/>
<path d="M20.09 43.68C19.7115 43.6054 19.3401 43.4983 18.98 43.36C18.7999 43.2875 18.626 43.2006 18.46 43.1C18.3555 43.0415 18.2582 42.9711 18.17 42.89H15.48C15.92 43.25 16.37 43.59 16.84 43.89H21.69C21.1529 43.8474 20.6187 43.7739 20.09 43.67" fill="#B81F53"/>
<path d="M31.8 38.1599C31.7672 38.0664 31.7556 37.9667 31.766 37.8682C31.7763 37.7696 31.8084 37.6746 31.86 37.5899C31.9323 37.4819 32.0325 37.3955 32.15 37.3399C32.2766 37.2712 32.4109 37.2175 32.55 37.1799H10.61C10.81 37.5199 11.02 37.8599 11.24 38.1799H31.81" fill="#B81F53"/>
<path d="M39.5 37.5099C40.1572 37.657 40.7926 37.8891 41.39 38.2H45.69C45.91 37.87 46.12 37.53 46.32 37.2H37.82C38.3857 37.2742 38.9467 37.381 39.5 37.52" fill="#B81F53"/>
<path d="M42.16 39.26C42.1211 39.499 41.9967 39.7157 41.81 39.87L41.74 39.93L41.51 40.11H44.31C44.59 39.78 44.85 39.44 45.11 39.11H42.16C42.1563 39.1599 42.1563 39.2101 42.16 39.26Z" fill="#B81F53"/>
<path d="M19.55 40.0901C20.5614 39.8454 21.5994 39.7278 22.64 39.7401C23.7299 39.7307 24.8172 39.8482 25.88 40.0901H29.82C29.7626 39.9113 29.7626 39.7189 29.82 39.5401C29.8622 39.3627 29.9521 39.2001 30.08 39.0701H11.86C12.12 39.4201 12.38 39.7601 12.66 40.0701L19.55 40.0901Z" fill="#B81F53"/>
<path d="M17.49 41.78C17.4863 41.4833 17.5973 41.1967 17.8 40.98H13.44C13.77 41.33 14.11 41.67 14.44 41.98H17.49C17.4851 41.9101 17.4851 41.8399 17.49 41.77" fill="#B81F53"/>
<path d="M38.16 41.2599H38.02C36.8022 41.5079 35.5629 41.6352 34.32 41.6399C33.0562 41.7035 31.7961 41.4563 30.65 40.9199H27.65C27.7221 40.9998 27.7858 41.0869 27.84 41.1799C27.9663 41.4126 27.995 41.6859 27.92 41.9399H42.47C42.82 41.6099 43.16 41.2799 43.47 40.9399H39.43C39.04 41.0399 38.63 41.1499 38.18 41.2399" fill="#B81F53"/>
<path d="M33.89 39.14C33.6452 39.1295 33.4013 39.1028 33.16 39.06C32.8297 38.9994 32.4955 38.9626 32.16 38.95H31.9C31.53 38.9486 31.161 38.9888 30.8 39.07C30.38 39.17 29.73 39.72 30.47 40.34C31.21 40.96 32.47 41.34 34.33 41.34C35.5458 41.3332 36.758 41.2093 37.95 40.97H38.08C39.2731 40.7908 40.4128 40.3541 41.42 39.69H41.48C41.597 39.5926 41.678 39.4588 41.71 39.31C41.71 39.1 41.56 38.57 39.38 38.02C37.8892 37.6655 36.3624 37.4843 34.83 37.48H34.75C33.9291 37.4185 33.1045 37.531 32.33 37.81C32.2726 37.8397 32.2216 37.8805 32.18 37.93C32.1641 37.9627 32.1558 37.9986 32.1558 38.035C32.1558 38.0714 32.1641 38.1073 32.18 38.14C32.39 38.66 33.25 38.78 34.04 38.78C34.48 38.78 34.46 38.99 34.38 39.09C34.3158 39.1526 34.2387 39.2003 34.154 39.2297C34.0693 39.2591 33.9792 39.2694 33.89 39.26" fill="#B81F53"/>
<path d="M45.72 32.68L40.61 32.26C40.61 32.4 40.61 32.53 40.56 32.66L45.68 33.1C45.68 32.97 45.68 32.83 45.68 32.7" fill="#B81F53"/>
<path d="M45.55 28.1699L40.48 29.0699L40.54 29.4699L45.61 28.5699C45.5998 28.4353 45.5797 28.3016 45.55 28.1699Z" fill="#B81F53"/>
<path d="M39.55 26.04C39.61 26.16 39.66 26.29 39.72 26.41L44.39 24.26C44.39 24.14 44.28 24.01 44.22 23.89L39.55 26.04Z" fill="#B81F53"/>
<path d="M42.07 20.34L41.82 20.02L37.82 23.35C37.9088 23.4523 37.9923 23.5591 38.07 23.67L42.07 20.34Z" fill="#B81F53"/>
<path d="M38.98 17.3101L38.65 17.0701L35.65 21.2801C35.7609 21.3579 35.8677 21.4413 35.97 21.5301L38.98 17.3101Z" fill="#B81F53"/>
<path d="M33.38 19.97L35.25 15.14L34.87 14.99L33 19.81L33.38 19.97Z" fill="#B81F53"/>
<path d="M11.41 33.08L16.41 32.65C16.41 32.52 16.41 32.38 16.41 32.25L11.41 32.68C11.41 32.81 11.41 32.94 11.41 33.08Z" fill="#B81F53"/>
<path d="M16.53 29.0599L11.53 28.1699C11.53 28.2999 11.48 28.4399 11.47 28.5699L16.47 29.4599L16.53 29.0599Z" fill="#B81F53"/>
<path d="M12.69 24.26L17.31 26.42C17.36 26.29 17.42 26.17 17.48 26.05L12.86 23.87C12.8 23.99 12.74 24.11 12.69 24.24" fill="#B81F53"/>
<path d="M19.16 23.34L15.24 20.04C15.1512 20.1423 15.0677 20.2491 14.99 20.36L18.9 23.66C18.99 23.55 19.07 23.44 19.16 23.34Z" fill="#B81F53"/>
<path d="M20.92 21.62L21.24 21.37L18.16 17.26L17.84 17.51L20.92 21.62Z" fill="#B81F53"/>
<path d="M23.51 20.0301L21.42 15.3301L21.05 15.5001L23.16 20.2001L23.53 20.0301" fill="#B81F53"/>
<path d="M40.66 31.06L49.59 30.66C49.59 30.52 49.59 30.39 49.59 30.25L40.66 30.64C40.66 30.79 40.66 30.92 40.66 31.06Z" fill="#B81F53"/>
<path d="M40.23 27.91L48.77 25.26C48.77 25.13 48.69 25 48.66 24.87L40.16 27.52C40.16 27.65 40.24 27.78 40.27 27.91" fill="#B81F53"/>
<path d="M39.01 24.9901L46.57 20.1601C46.5024 20.0431 46.429 19.9297 46.35 19.8201L38.79 24.6401L39.01 24.9901Z" fill="#B81F53"/>
<path d="M43.16 15.8701L42.87 15.5901L36.77 22.2601L37.06 22.5401L43.16 15.8701Z" fill="#B81F53"/>
<path d="M38.86 12.7L38.51 12.5L34.3 20.42L34.65 20.62L38.86 12.7Z" fill="#B81F53"/>
<path d="M16.37 30.65L7.51001 30.26C7.51001 30.39 7.51001 30.53 7.51001 30.67L16.37 31.06C16.37 30.92 16.37 30.78 16.37 30.65Z" fill="#B81F53"/>
<path d="M16.9 27.5101L8.41999 24.8301L8.29999 25.2201L16.78 27.9001L16.9 27.5101Z" fill="#B81F53"/>
<path d="M18.23 24.6301L10.72 19.8401C10.65 19.9601 10.57 20.0701 10.5 20.1801L18.01 24.9701C18.09 24.8601 18.16 24.7401 18.23 24.6301Z" fill="#B81F53"/>
<path d="M20.16 22.3201L14.03 15.8401L13.74 16.1201L19.87 22.6001L20.16 22.3201Z" fill="#B81F53"/>
<path d="M17.49 13.1199L21.99 20.8399L22.34 20.6299L17.84 12.9099L17.49 13.1199Z" fill="#B81F53"/>
<path d="M14.16 13.39L13.86 13.13L13.38 13.68C13.3314 13.7301 13.2939 13.7898 13.2698 13.8552C13.2457 13.9206 13.2355 13.9904 13.24 14.06C13.239 14.128 13.2528 14.1954 13.2804 14.2576C13.3081 14.3197 13.3488 14.3751 13.4 14.42C13.5624 14.5514 13.7548 14.6407 13.96 14.68C14.2354 14.7171 14.5146 14.7171 14.79 14.68V14.5C14.6079 14.4977 14.4267 14.4742 14.25 14.43C14.1147 14.3933 13.9886 14.3286 13.88 14.24C13.7996 14.1719 13.7493 14.0749 13.74 13.97C13.7295 13.8698 13.7582 13.7695 13.82 13.69L14.16 13.39Z" fill="#B81F53"/>
<path d="M16.46 8.84001C16.5206 8.80211 16.589 8.77821 16.66 8.77001C16.7258 8.75471 16.7942 8.75471 16.86 8.77001L17.58 9.08001C17.7 9.01001 17.58 8.90001 17.26 8.74001L16.92 8.58001C16.7683 8.51201 16.6058 8.47141 16.44 8.46001C16.3008 8.45061 16.1618 8.48191 16.04 8.55001C15.9873 8.58231 15.94 8.62281 15.9 8.67001L16.29 8.94001C16.3443 8.89671 16.4011 8.85661 16.46 8.82001" fill="#B81F53"/>
<path d="M18.49 8.06997L18.67 7.97997C18.7916 7.93557 18.9207 7.91517 19.05 7.91997C19.2303 7.92997 19.4085 7.96357 19.58 8.01997L19.83 7.90997L19.16 7.31997C19.0732 7.22097 18.958 7.15107 18.83 7.11997C18.7159 7.08517 18.5941 7.08517 18.48 7.11997C18.3854 7.16347 18.2978 7.22067 18.22 7.28997L18.61 7.55997C18.6045 7.54737 18.6017 7.53377 18.6017 7.51997C18.6017 7.50617 18.6045 7.49257 18.61 7.47997L18.74 7.39997C18.7731 7.38537 18.8089 7.37777 18.845 7.37777C18.8812 7.37777 18.9169 7.38537 18.95 7.39997C19.0473 7.43837 19.1358 7.49617 19.21 7.56997L19.61 7.85997C19.3195 7.76357 19.022 7.68997 18.72 7.63997C18.556 7.59767 18.384 7.59767 18.22 7.63997C18.1727 7.65507 18.1286 7.67877 18.09 7.70997C18.0585 7.73127 18.0314 7.75847 18.01 7.78997L18.36 8.09997L18.49 8.01997" fill="#B81F53"/>
<path d="M14.05 12.5199H14.16L14.25 12.5799C14.2843 12.6209 14.307 12.6704 14.3158 12.7231C14.3246 12.7758 14.3191 12.83 14.3 12.8799C14.254 13.017 14.175 13.1406 14.07 13.2399C14.3098 13.3988 14.584 13.4982 14.87 13.5299C14.9802 13.5459 15.0925 13.5381 15.1995 13.5071C15.3064 13.476 15.4055 13.4224 15.49 13.3499C15.5599 13.2862 15.6146 13.2076 15.65 13.1199C15.6995 13.0233 15.7301 12.918 15.74 12.8099L16.05 13.1399L16.57 13.0299L15.15 11.5299C15.36 11.3399 15.58 11.1599 15.8 10.9799L16.89 12.3699H17.43L16.15 10.7399L16.87 10.1999L17.21 10.7199L17.02 10.8399C17.0057 10.8481 16.9937 10.8597 16.9849 10.8736C16.9762 10.8876 16.9711 10.9035 16.97 10.9199C16.9629 10.9339 16.9593 10.9493 16.9593 10.9649C16.9593 10.9805 16.9629 10.9959 16.97 11.0099C17.0809 11.124 17.231 11.1919 17.39 11.1999C17.5417 11.2558 17.7083 11.2558 17.86 11.1999C17.8936 11.1795 17.9185 11.1475 17.93 11.1099C17.9437 11.0711 17.9437 11.0287 17.93 10.9899L17.26 9.98994L17.76 9.65994L18.76 11.1999H19.28L18.15 9.45994C18.67 9.15324 19.2 8.86324 19.74 8.58994L20.02 9.14994L19.12 9.59994C19.0954 9.61114 19.0736 9.62774 19.0563 9.64854C19.039 9.66934 19.0266 9.69374 19.02 9.71994C19.0098 9.74364 19.0045 9.76914 19.0045 9.79494C19.0045 9.82074 19.0098 9.84624 19.02 9.86994C19.0903 9.99434 19.199 10.0926 19.33 10.1499C19.3819 10.1857 19.4411 10.2096 19.5033 10.22C19.5655 10.2304 19.6292 10.2269 19.69 10.2099C19.6965 10.2012 19.7 10.1907 19.7 10.1799C19.7 10.1691 19.6965 10.1586 19.69 10.1499C19.7 10.1242 19.7 10.0956 19.69 10.0699L19.61 9.90994C19.6029 9.89594 19.5993 9.88054 19.5993 9.86494C19.5993 9.84934 19.6029 9.83394 19.61 9.81994C19.6015 9.79734 19.6015 9.77254 19.61 9.74994L20.1 9.49994L20.46 10.2199H20.98L20.06 8.25994C20.63 7.99994 21.22 7.75994 21.81 7.54994L22.07 8.25994C21.9326 8.17694 21.7846 8.11304 21.63 8.06994C21.5262 8.03484 21.4138 8.03484 21.31 8.06994C21.1496 8.12324 21.0144 8.23354 20.93 8.37994C20.8982 8.45074 20.8818 8.52734 20.8818 8.60494C20.8818 8.68254 20.8982 8.75914 20.93 8.82994C21.0145 9.01734 21.1688 9.16444 21.36 9.23994C21.4459 9.29254 21.5418 9.32684 21.6416 9.34064C21.7414 9.35444 21.843 9.34734 21.94 9.31994C22.0232 9.28174 22.098 9.22734 22.16 9.15994C22.2392 9.07994 22.3065 8.98904 22.36 8.88994L22.51 9.28994L23.03 9.38994L22.7 8.48994C22.7361 8.37964 22.7939 8.27764 22.87 8.18994C22.9343 8.11394 23.0169 8.05544 23.11 8.01994C23.1294 8.00744 23.1519 8.00084 23.175 8.00084C23.198 8.00084 23.2206 8.00744 23.24 8.01994C23.2635 8.03014 23.2846 8.04514 23.3019 8.06414C23.3191 8.08314 23.3321 8.10554 23.34 8.12994C23.3621 8.23884 23.3621 8.35104 23.34 8.45994C23.3292 8.60014 23.2989 8.73814 23.25 8.86994L23.72 8.98994C23.7958 8.73204 23.7958 8.45784 23.72 8.19994C23.6463 8.01734 23.5121 7.86554 23.34 7.76994C23.2721 7.71544 23.1927 7.67714 23.1077 7.65804C23.0228 7.63904 22.9346 7.63964 22.85 7.65994C22.786 7.68544 22.7255 7.71904 22.67 7.75994C22.5994 7.81554 22.5356 7.87934 22.48 7.94994L22.28 7.40994C22.72 7.25664 23.17 7.12664 23.63 7.01994L23.53 6.92994L23.16 6.68994C18.8106 7.86414 14.954 10.4059 12.16 13.9399L12.62 14.0599C13.06 13.5299 13.52 13.0599 14.01 12.5199H14.05ZM21.87 8.78994C21.7952 8.87254 21.703 8.93744 21.6 8.97994C21.545 8.99984 21.4849 8.99984 21.43 8.97994C21.4052 8.96984 21.3827 8.95494 21.3638 8.93604C21.3449 8.91714 21.33 8.89474 21.32 8.86994C21.2999 8.82424 21.2895 8.77484 21.2895 8.72494C21.2895 8.67504 21.2999 8.62564 21.32 8.57994C21.3387 8.53354 21.3671 8.49164 21.4033 8.45714C21.4395 8.42264 21.4827 8.39634 21.53 8.37994C21.6221 8.35864 21.7179 8.35864 21.81 8.37994C21.9146 8.39134 22.0163 8.42184 22.11 8.46994C22.0331 8.59354 21.9461 8.71064 21.85 8.81994L21.87 8.78994ZM14.69 11.8799L15.25 12.4699C15.2376 12.6238 15.2039 12.7752 15.15 12.9199C15.1163 13.0283 15.0581 13.1276 14.98 13.2099C14.9147 13.269 14.8353 13.3101 14.7495 13.3294C14.6636 13.3487 14.5742 13.3454 14.49 13.3199C14.5889 13.2001 14.6606 13.0602 14.7 12.9099C14.7 12.7699 14.7 12.6799 14.7 12.6299C14.6417 12.57 14.5696 12.5254 14.49 12.4999L14.16 12.3499L14.72 11.8499" fill="#B81F53"/>
<path d="M29.59 8.84999C29.6772 8.79799 29.7805 8.78019 29.88 8.79999H30.13L29.96 8.47999H29.74C29.6091 8.46149 29.4758 8.48609 29.36 8.54999C29.3105 8.57839 29.2679 8.61729 29.2351 8.66389C29.2022 8.71059 29.18 8.76379 29.17 8.81999C29.1604 8.91909 29.1714 9.01919 29.2023 9.11389C29.2333 9.20859 29.2836 9.29579 29.35 9.36999C29.4765 9.52859 29.6591 9.63239 29.86 9.65999C29.9758 9.68059 30.0943 9.68059 30.21 9.65999C30.3162 9.63759 30.4177 9.59699 30.51 9.53999L30.35 9.16999C30.2428 9.24429 30.1247 9.30169 30 9.33999C29.8908 9.35829 29.7793 9.35829 29.67 9.33999C29.6361 9.33699 29.6032 9.32639 29.5738 9.30919C29.5444 9.29189 29.5192 9.26819 29.5 9.23999C29.4594 9.18169 29.4416 9.11049 29.45 9.03999C29.4522 8.99689 29.4665 8.95529 29.4913 8.91989C29.5161 8.88449 29.5503 8.85679 29.59 8.83999" fill="#B81F53"/>
<path d="M33.6 7.96002C33.6415 7.93052 33.6891 7.91072 33.7393 7.90202C33.7895 7.89332 33.841 7.89612 33.89 7.91002L34.35 8.03002L34.45 7.64002L33.74 7.45002C33.6079 7.40012 33.4621 7.40012 33.33 7.45002C33.2689 7.47862 33.2148 7.52032 33.1716 7.57222C33.1284 7.62402 33.0971 7.68472 33.08 7.75002C33.03 7.95362 33.03 8.16642 33.08 8.37002C33.153 8.63942 33.2606 8.89822 33.4 9.14002L33.57 9.08002C33.4925 8.91772 33.4354 8.74642 33.4 8.57002C33.3698 8.43502 33.3698 8.29502 33.4 8.16002C33.4367 8.06212 33.5031 7.97822 33.59 7.92002" fill="#B81F53"/>
<path d="M42.34 11.73C42.18 11.73 42.09 11.88 42.05 12.12C42.0135 12.39 42.0444 12.6649 42.14 12.92C41.9616 12.9802 41.7684 12.9802 41.59 12.92C41.6011 12.8605 41.6011 12.7995 41.59 12.74C41.59 12.68 41.59 12.64 41.59 12.61C41.5634 12.5975 41.5344 12.5911 41.505 12.5911C41.4756 12.5911 41.4466 12.5975 41.42 12.61C41.3434 12.6247 41.2734 12.6632 41.22 12.72C41.19 12.7514 41.1687 12.79 41.1582 12.8321C41.1477 12.8741 41.1483 12.9182 41.16 12.96C41.1936 13.0651 41.2559 13.1586 41.34 13.23L41.19 13.94L41.44 14.01V13.32C41.7064 13.3954 41.9847 13.4192 42.26 13.39C42.4764 13.3761 42.6813 13.2877 42.84 13.14C42.9883 12.9793 43.0706 12.7687 43.0706 12.55C43.0706 12.3314 42.9883 12.1207 42.84 11.96C42.7664 11.8871 42.6754 11.8342 42.5757 11.8062C42.476 11.7782 42.3708 11.7761 42.27 11.8L42.34 11.73ZM42.68 12.45C42.6625 12.5524 42.6136 12.6467 42.54 12.72L42.36 12.88C42.3144 12.9119 42.2637 12.9355 42.21 12.95C42.1867 12.8143 42.1867 12.6757 42.21 12.54C42.2114 12.446 42.243 12.3548 42.3 12.28C42.3494 12.2233 42.4162 12.1847 42.49 12.17C42.5186 12.1615 42.5491 12.1617 42.5776 12.1706C42.6061 12.1795 42.6313 12.1967 42.65 12.22C42.6809 12.2488 42.7036 12.2852 42.7159 12.3256C42.7282 12.366 42.7296 12.4089 42.72 12.45" fill="#B81F53"/>
<path d="M41.73 15.04C41.5899 15.0187 41.4621 14.9478 41.37 14.84C41.2087 14.6638 41.074 14.4651 40.97 14.25C40.8836 14.0907 40.8421 13.911 40.85 13.73H40.67C40.6534 13.9711 40.6874 14.2129 40.77 14.44C40.8656 14.6951 41.0043 14.9319 41.18 15.14C41.2959 15.2862 41.4581 15.3885 41.64 15.43C41.7183 15.4493 41.8001 15.4494 41.8785 15.4303C41.9569 15.4111 42.0294 15.3733 42.09 15.32C42.2019 15.2044 42.2662 15.0509 42.27 14.89C42.2842 14.8115 42.2817 14.7309 42.2628 14.6533C42.2438 14.5758 42.2088 14.5031 42.16 14.44C42.1096 14.3802 42.044 14.3353 41.97 14.31C41.8819 14.2692 41.7869 14.2455 41.69 14.24V14.65C41.7625 14.6346 41.8375 14.6346 41.91 14.65C41.9722 14.6604 42.0288 14.6922 42.07 14.74C42.0988 14.7698 42.1165 14.8087 42.12 14.85C42.1299 14.8648 42.1352 14.8822 42.1352 14.9C42.1352 14.9178 42.1299 14.9352 42.12 14.95C42.072 14.9901 42.0157 15.019 41.9552 15.0346C41.8946 15.0502 41.8314 15.052 41.77 15.04" fill="#B81F53"/>
<path d="M25.68 8.25997C25.8693 8.40277 26.1033 8.47367 26.34 8.45997C26.4159 8.45467 26.4896 8.43207 26.5555 8.39387C26.6213 8.35577 26.6776 8.30317 26.72 8.23997C26.8178 8.11137 26.8641 7.95087 26.85 7.78997C26.8603 7.72707 26.8603 7.66287 26.85 7.59997C26.8203 7.54217 26.7834 7.48837 26.74 7.43997C26.8254 7.50107 26.9199 7.54827 27.02 7.57997C27.1027 7.59437 27.1873 7.59437 27.27 7.57997C27.3405 7.56937 27.4083 7.54557 27.47 7.50997L27.54 8.20997L28.01 8.41997L27.81 6.41997H28.62H28.74V7.24997H28.59C28.5761 7.24297 28.5607 7.23927 28.545 7.23927C28.5294 7.23927 28.514 7.24297 28.5 7.24997C28.4939 7.26237 28.4906 7.27607 28.4906 7.28997C28.4906 7.30387 28.4939 7.31757 28.5 7.32997C28.5 7.40997 28.58 7.52997 28.74 7.70997C28.9 7.88997 29.02 7.97997 29.1 7.97997C29.1229 7.98637 29.1471 7.98637 29.17 7.97997C29.1798 7.94397 29.1798 7.90597 29.17 7.86997V7.66997H29.92V8.21997L30.36 8.53997L30.46 6.45997C31.09 6.51997 31.72 6.59997 32.34 6.70997L32.28 7.04997L31.64 6.93997C31.4917 6.90947 31.3374 6.93817 31.21 7.01997C31.1513 7.05297 31.101 7.09887 31.0628 7.15437C31.0247 7.20987 30.9998 7.27337 30.99 7.33997C30.9617 7.55177 30.9822 7.76727 31.05 7.96997C31.1276 8.22397 31.2458 8.46377 31.4 8.67997L31.56 8.60997C31.46 8.47307 31.3824 8.32117 31.33 8.15997C31.3006 8.00807 31.3006 7.85187 31.33 7.69997C31.3371 7.64667 31.3561 7.59567 31.3855 7.55067C31.415 7.50567 31.4541 7.46787 31.5 7.43997C31.5414 7.40617 31.5899 7.38237 31.6419 7.37017C31.6939 7.35807 31.748 7.35797 31.8 7.36997L32.24 7.43997L32.07 8.43997L32.47 8.80997L32.81 6.74997C33.9748 6.97857 35.1162 7.31337 36.22 7.74997L35.99 8.36997C35.935 8.20587 35.8503 8.05337 35.74 7.91997C35.6462 7.80627 35.526 7.71697 35.39 7.65997C35.2227 7.59517 35.0373 7.59517 34.87 7.65997C34.7937 7.68277 34.7235 7.72247 34.6646 7.77617C34.6058 7.82987 34.5598 7.89607 34.53 7.96997C34.498 8.07797 34.4886 8.19147 34.5023 8.30327C34.5161 8.41517 34.5527 8.52297 34.61 8.61997C34.6499 8.72837 34.7111 8.82757 34.7902 8.91177C34.8692 8.99597 34.9644 9.06337 35.07 9.10997C35.1752 9.13507 35.2848 9.13507 35.39 9.10997C35.5081 9.10237 35.6236 9.07177 35.73 9.01997L35.59 9.39997L35.91 9.83997L36.64 7.88997L37.48 8.26997L37.09 9.00997L36.96 8.93997C36.9468 8.93097 36.9311 8.92607 36.915 8.92607C36.899 8.92607 36.8833 8.93097 36.87 8.93997C36.8522 8.94097 36.8352 8.94717 36.8209 8.95787C36.8067 8.96847 36.7959 8.98317 36.79 8.99997C36.79 9.06997 36.79 9.21997 36.79 9.44997C36.79 9.67997 36.93 9.80997 37 9.84997H37.08C37.1138 9.83157 37.1416 9.80377 37.16 9.76997L37.24 9.59997L37.91 9.94997L37.65 10.44L37.91 10.92L38.91 9.07997C39.15 9.21997 39.39 9.35997 39.62 9.50997L38.62 11.01L38.83 11.51L39.98 9.75997C40.47 10.09 40.98 10.44 41.41 10.81L41.02 11.31L40.16 10.81C40.1369 10.7977 40.1112 10.7913 40.085 10.7913C40.0589 10.7913 40.0331 10.7977 40.01 10.81C39.9848 10.8124 39.9603 10.8198 39.9379 10.8319C39.9156 10.8439 39.8959 10.8603 39.88 10.88C39.795 10.9954 39.7526 11.1368 39.76 11.28C39.7508 11.3421 39.7549 11.4055 39.7721 11.4658C39.7894 11.5262 39.8193 11.5822 39.86 11.63C39.8826 11.6384 39.9075 11.6384 39.93 11.63C39.9411 11.6347 39.953 11.6371 39.965 11.6371C39.977 11.6371 39.9889 11.6347 40 11.63L40.11 11.49C40.1225 11.4838 40.1361 11.4806 40.15 11.4806C40.1639 11.4806 40.1776 11.4838 40.19 11.49C40.2022 11.483 40.216 11.4793 40.23 11.4793C40.2441 11.4793 40.2579 11.483 40.27 11.49L40.71 11.83L40.21 12.46L40.41 12.94L41.67 11.26L42.23 11.74L42.53 11.42C38.6958 7.94637 33.7037 6.02797 28.53 6.03997C27.91 6.03997 27.3 6.03997 26.69 6.11997L26.97 6.53997H27.27L27.33 7.12997C27.2904 7.18937 27.2394 7.24037 27.18 7.27997C27.1244 7.31907 27.058 7.34007 26.99 7.33997C26.8902 7.34917 26.7898 7.34917 26.69 7.33997C26.6314 7.35837 26.5686 7.35837 26.51 7.33997C26.5742 7.28127 26.6253 7.20977 26.66 7.12997C26.6791 7.05107 26.6791 6.96887 26.66 6.88997C26.6426 6.79617 26.6037 6.70767 26.5465 6.63137C26.4892 6.55507 26.4152 6.49297 26.33 6.44997C26.161 6.32267 25.9509 6.26207 25.74 6.27997C25.6369 6.29047 25.5377 6.32467 25.45 6.37997C25.3444 6.43187 25.2494 6.50307 25.17 6.58997L25.43 6.88997C25.521 6.79927 25.6216 6.71877 25.73 6.64997C25.8219 6.59597 25.9241 6.56187 26.03 6.54997C26.107 6.54027 26.1848 6.55797 26.25 6.59997C26.2806 6.61747 26.3066 6.64197 26.3257 6.67157C26.3449 6.70117 26.3566 6.73487 26.36 6.76997C26.3695 6.86937 26.3522 6.96947 26.31 7.05997C26.31 7.13997 26.23 7.17997 26.13 7.19997C26.0608 7.18537 25.9893 7.18537 25.92 7.19997C25.8293 7.22617 25.742 7.26307 25.66 7.30997L25.87 7.66997C26.0435 7.63047 26.2069 7.55557 26.35 7.44997C26.3881 7.47917 26.4189 7.51687 26.44 7.55997C26.4471 7.60297 26.4471 7.64697 26.44 7.68997C26.4496 7.81027 26.4178 7.93017 26.35 8.02997C26.3121 8.07737 26.2652 8.11677 26.212 8.14597C26.1588 8.17517 26.1004 8.19347 26.04 8.19997C25.873 8.21267 25.7068 8.16667 25.57 8.06997C25.4008 7.95017 25.2579 7.79707 25.15 7.61997L25.16 7.65997C25.2844 7.91767 25.474 8.13827 25.71 8.29997L25.68 8.25997ZM35.31 8.85997C35.1648 8.87487 35.018 8.85787 34.88 8.80997C34.7953 8.77887 34.7244 8.71857 34.68 8.63997C34.666 8.60677 34.6588 8.57107 34.6588 8.53497C34.6588 8.49887 34.666 8.46317 34.68 8.42997C34.7094 8.37047 34.7531 8.31917 34.8072 8.28077C34.8613 8.24237 34.9242 8.21807 34.99 8.20997C35.1495 8.16007 35.3205 8.16007 35.48 8.20997C35.5667 8.24687 35.6425 8.30537 35.7 8.37997C35.7725 8.47017 35.8299 8.57147 35.87 8.67997C35.7014 8.75497 35.5229 8.80547 35.34 8.82997L35.31 8.85997ZM37.8 8.58997L38.46 8.93997L38.07 9.68997L37.4 9.33997L37.8 8.58997ZM29.16 6.44997H29.91V7.28997L29.16 7.25997V6.44997Z" fill="#B81F53"/>
<path d="M42.22 14.26L42.36 14.76L43.83 13.31L44.16 13.68L44.29 13.15C44.03 12.85 43.76 12.56 43.49 12.28L43.16 12.59L43.52 12.97L42.22 14.26Z" fill="#B81F53"/>
<path d="M43.69 14.62H43.12V15.19H43.69V14.62Z" fill="#B81F53"/>
<path d="M44.33 13.99H43.76V14.56H44.33V13.99Z" fill="#B81F53"/>
<path d="M25.4124 22.67C25.4124 22.5276 25.4458 22.3872 25.51 22.26L25.57 22.24C25.152 21.9798 24.7921 21.6362 24.5129 21.2307C24.2337 20.8251 24.0411 20.3664 23.9473 19.883C23.8534 19.3997 23.8603 18.9022 23.9674 18.4216C24.0746 17.941 24.2797 17.4877 24.57 17.09C24.8627 16.5553 25.2149 16.0555 25.62 15.6C26.506 14.6968 27.1224 13.5644 27.4 12.33V11.98C27.3639 11.3948 27.3974 10.8073 27.5 10.23C27.69 9.50001 28.15 9.39001 28.4 9.39001H28.51C28.6196 9.40651 28.7242 9.44741 28.816 9.50971C28.9077 9.57201 28.9843 9.65411 29.04 9.75001V10.06L29.15 10.11C29.4929 10.5046 29.7356 10.976 29.8574 11.4843C29.9793 11.9927 29.9767 12.5229 29.85 13.03C29.6503 14.3976 30.2778 14.968 31.1554 15.7658L31.16 15.77L31.35 16L31.6 16.23L31.79 16.41C32.0353 16.6667 32.244 16.9561 32.41 17.27L32.61 17.72C32.8039 18.261 32.8789 18.8374 32.83 19.41C32.8103 19.6187 32.7769 19.8258 32.73 20.03V20.17C32.4658 20.982 32.0015 21.7145 31.38 22.3C31.4262 22.3902 31.4534 22.4889 31.46 22.59C31.47 22.94 31.2 23.3 30.7 23.59C30.7049 23.6332 30.7049 23.6768 30.7 23.72C30.7 24.18 30.28 24.54 29.57 24.72C29.5447 24.904 29.4642 25.0761 29.3393 25.2135C29.2144 25.3509 29.0507 25.4473 28.87 25.49H28.53C28.2764 25.5254 28.0188 25.4622 27.8104 25.3134C27.6021 25.1645 27.4587 24.9414 27.41 24.69C26.69 24.49 26.27 24.13 26.27 23.69C25.9513 23.5851 25.6814 23.3684 25.51 23.08C25.4458 22.9529 25.4124 22.8124 25.4124 22.67Z" fill="#B81F53"/>
<path d="M39.87 33.9999L39.35 33.8699C39.5819 32.9546 39.6995 32.0141 39.7 31.0699C39.7031 28.7136 38.9624 26.4165 37.5833 24.506C36.2043 22.5955 34.2574 21.169 32.02 20.4299L32.19 19.9299C34.5245 20.7113 36.5537 22.2079 37.9897 24.2075C39.4256 26.2071 40.1955 28.6081 40.19 31.0699C40.1835 32.0578 40.0593 33.0414 39.82 33.9999" fill="#B81F53"/>
<path d="M17.16 34.0099C16.4545 31.2492 16.7753 28.3263 18.0628 25.7844C19.3504 23.2425 21.517 21.2545 24.16 20.1899L24.36 20.6799C22.2875 21.5124 20.5125 22.9477 19.2645 24.8C18.0166 26.6523 17.3531 28.8364 17.36 31.0699C17.3612 32.0174 17.4787 32.9611 17.71 33.8799L17.16 34.0099Z" fill="#B81F53"/>
<path d="M25.63 57.6899C25.5961 57.6897 25.5625 57.6968 25.5314 57.7106C25.5004 57.7244 25.4726 57.7446 25.45 57.7699C25.3987 57.8248 25.3671 57.8951 25.36 57.9699C25.356 58.0257 25.3647 58.0817 25.3855 58.1337C25.4063 58.1857 25.4386 58.2322 25.48 58.2699C25.5694 58.3581 25.6854 58.4144 25.81 58.4299C25.8411 58.395 25.8649 58.3542 25.88 58.3099C25.8867 58.2468 25.8867 58.1831 25.88 58.1199C25.8905 58.0197 25.8618 57.9194 25.8 57.8399C25.7803 57.7994 25.7508 57.7644 25.7141 57.7382C25.6774 57.712 25.6348 57.6954 25.59 57.6899" fill="#B81F53"/>
<path d="M27.58 58.48C27.4351 58.472 27.2914 58.5105 27.17 58.59C27.1181 58.6219 27.0747 58.6659 27.0434 58.7181C27.0121 58.7703 26.9938 58.8292 26.99 58.89C26.9892 58.9304 26.9978 58.9704 27.0152 59.0068C27.0325 59.0433 27.0581 59.0752 27.09 59.1C27.1562 59.1584 27.2416 59.1905 27.33 59.19C27.4715 59.1894 27.6112 59.1587 27.74 59.1C27.8989 59.0258 28.0497 58.9353 28.19 58.83C28.1033 58.7328 28.006 58.6456 27.9 58.57C27.8019 58.5151 27.6923 58.4843 27.58 58.48Z" fill="#B81F53"/>
<path d="M15.6544 55.5483L15.3931 56.3256L16.1514 56.5805L16.4127 55.8032L15.6544 55.5483Z" fill="#B81F53"/>
<path d="M23.24 58.1401C23.0961 58.1156 22.9482 58.1403 22.82 58.2101C22.7635 58.2342 22.7144 58.2728 22.6775 58.322C22.6406 58.3711 22.6174 58.4291 22.61 58.4901C22.6047 58.5297 22.6082 58.5699 22.6203 58.608C22.6324 58.646 22.6528 58.6809 22.68 58.7101C22.7412 58.7746 22.8221 58.8168 22.91 58.8301C23.0484 58.8598 23.1916 58.8598 23.33 58.8301C23.495 58.776 23.6528 58.7022 23.8 58.6101C23.7239 58.5045 23.6367 58.4073 23.54 58.3201C23.4584 58.2414 23.3528 58.1921 23.24 58.1801" fill="#B81F53"/>
<path d="M45.2513 53.9587L44.5216 54.2866L44.8577 55.0345L45.5874 54.7066L45.2513 53.9587Z" fill="#B81F53"/>
<path d="M42.56 56.5C42.5437 56.5361 42.5353 56.5753 42.5353 56.615C42.5353 56.6546 42.5437 56.6938 42.56 56.73C42.5813 56.7877 42.616 56.8395 42.6612 56.8812C42.7064 56.9229 42.7608 56.9533 42.82 56.97C42.9495 57.0149 43.0904 57.0149 43.22 56.97C43.4043 56.9058 43.5624 56.7828 43.67 56.62C43.7181 56.5527 43.7487 56.4746 43.7592 56.3926C43.7697 56.3105 43.7596 56.2272 43.73 56.15C43.7114 56.103 43.68 56.0621 43.6393 56.032C43.5987 56.002 43.5504 55.984 43.5 55.98C43.3729 55.9413 43.2371 55.9413 43.11 55.98C43.0198 56.0773 42.9192 56.1645 42.81 56.24C42.7226 56.2988 42.6506 56.3777 42.6 56.47" fill="#B81F53"/>
<path d="M38.86 56.3101L39.16 57.4801C39.1657 57.5014 39.1758 57.5212 39.1895 57.5384C39.2033 57.5557 39.2205 57.5698 39.24 57.5801C39.2785 57.5957 39.3215 57.5957 39.36 57.5801C39.4964 57.5387 39.6179 57.4589 39.71 57.3501C39.8095 57.2306 39.8721 57.0846 39.89 56.9301L39.64 56.0601L38.86 56.3101Z" fill="#B81F53"/>
<path d="M32.92 58.26C32.7755 58.2748 32.6392 58.3343 32.53 58.43C32.4828 58.4683 32.4454 58.5173 32.4211 58.573C32.3967 58.6286 32.3861 58.6894 32.39 58.75C32.3938 58.7888 32.4066 58.8263 32.4275 58.8593C32.4483 58.8922 32.4766 58.9199 32.51 58.94C32.5831 58.9901 32.6721 59.0115 32.76 59C32.901 58.979 33.0367 58.9315 33.16 58.86C33.3095 58.7669 33.4471 58.6561 33.57 58.53C33.4705 58.442 33.3595 58.368 33.24 58.31C33.1346 58.2867 33.0254 58.2867 32.92 58.31" fill="#B81F53"/>
<path d="M35.73 57.04L35.85 57.67L35.02 57.83C34.9658 57.8405 34.9166 57.8686 34.88 57.91C34.8707 57.9321 34.8658 57.9559 34.8658 57.98C34.8658 58.004 34.8707 58.0278 34.88 58.05C34.8931 58.1003 34.9209 58.1456 34.96 58.18C35.0083 58.2237 35.0667 58.2547 35.13 58.27C35.1838 58.2166 35.2487 58.1757 35.32 58.15C35.4128 58.1108 35.5103 58.084 35.61 58.07L35.88 58.37H35.62C35.5358 58.3881 35.457 58.4258 35.39 58.48C35.3672 58.5036 35.35 58.532 35.3396 58.5632C35.3292 58.5943 35.3259 58.6274 35.33 58.66C35.3362 58.6891 35.3495 58.7161 35.3687 58.7388C35.3879 58.7615 35.4124 58.7791 35.44 58.79C35.5112 58.8151 35.5888 58.8151 35.66 58.79C35.8616 58.7459 36.0479 58.6493 36.2 58.51C36.3627 58.3545 36.4861 58.1625 36.56 57.95L36.35 56.86L35.73 57.04Z" fill="#B81F53"/>
<path d="M53.83 52.52C53.64 52.15 53.44 51.76 53.28 51.37C53.6467 51.1033 54.0067 50.8133 54.36 50.5C55.51 49.5 54.83 48.08 54.28 46.97L54.16 46.75C53.9419 46.2324 53.8794 45.6625 53.98 45.11C54.0332 44.9034 54.042 44.6878 54.0058 44.4775C53.9696 44.2672 53.8892 44.067 53.77 43.89C53.51 43.62 53.04 43.52 52.24 43.56C50.54 43.67 49.49 45.07 49.24 47.5L48.81 47.71C47.6826 48.1998 46.5149 48.5912 45.32 48.88L44.7 49.04C44.5564 49.0783 44.4186 49.1355 44.29 49.21C43.62 49.64 44.08 51.4 44.29 52.06C41.29 54.23 35.54 55.6 29.2 55.6H27.82C21.48 55.6 15.76 54.24 12.73 52.06C12.93 51.4 13.4 49.65 12.73 49.21C12.6015 49.1355 12.4636 49.0783 12.32 49.04L11.7 48.88C10.4895 48.5893 9.30536 48.198 8.16002 47.71L7.73002 47.5C7.51002 45.07 6.46002 43.67 4.73002 43.56C3.93002 43.56 3.46002 43.62 3.20002 43.89C3.08022 44.0667 2.99951 44.2669 2.9633 44.4773C2.92708 44.6877 2.93619 44.9034 2.99002 45.11C3.09065 45.6625 3.0281 46.2324 2.81002 46.75L2.70002 46.97C2.15002 48.08 1.47002 49.46 2.62002 50.5C2.96106 50.8128 3.3218 51.1034 3.70002 51.37C3.54002 51.76 3.34002 52.14 3.15002 52.52C2.78005 53.1676 2.4944 53.8599 2.30002 54.58C2.23002 54.86 2.08002 57.15 2.55002 57.32C2.63002 57.32 2.79002 57.32 2.93002 57.09C3.41002 56.09 4.22002 55.09 4.74002 55.09C4.81901 55.0725 4.90143 55.0795 4.97641 55.1098C5.05139 55.1402 5.11541 55.1925 5.16002 55.26C5.28983 55.4869 5.40022 55.7245 5.49002 55.97C5.64002 56.34 5.70002 56.5 5.90002 56.47C6.10002 56.44 6.09002 56.22 6.09002 56.05C6.13408 54.9749 6.35365 53.9142 6.74002 52.91C7.52002 53.2 8.30002 53.43 9.06002 53.64H9.12002L9.07002 53.7L8.51002 54.27C8.39713 54.3834 8.31009 54.5198 8.25485 54.67C8.19962 54.8202 8.17751 54.9805 8.19002 55.14C8.20788 55.2908 8.25826 55.436 8.33768 55.5655C8.41709 55.695 8.52366 55.8057 8.65002 55.89C13.02 59 20.19 60.89 27.84 60.89H29.22C36.87 60.89 44.04 59.03 48.41 55.89C48.5364 55.8057 48.643 55.695 48.7224 55.5655C48.8018 55.436 48.8522 55.2908 48.87 55.14C48.8825 54.9805 48.8604 54.8202 48.8052 54.67C48.75 54.5198 48.6629 54.3834 48.55 54.27C48.55 54.27 48.21 53.94 47.99 53.7V53.64H48.05C48.82 53.43 49.6 53.2 50.37 52.91C50.7612 53.9128 50.9809 54.9743 51.02 56.05C51.02 56.22 51.02 56.44 51.21 56.47C51.4 56.5 51.47 56.34 51.62 55.97C51.7098 55.7245 51.8202 55.4869 51.95 55.26C52.09 55.04 52.23 55.02 52.32 55.03C52.83 55.03 53.64 56.03 54.13 57.03C54.26 57.3 54.43 57.29 54.51 57.26C54.98 57.09 54.83 54.8 54.76 54.52C54.548 53.803 54.2561 53.112 53.89 52.46L53.83 52.52ZM5.71002 55.58C5.64419 55.4133 5.56388 55.2527 5.47002 55.1C5.40064 54.9709 5.2963 54.864 5.16896 54.7915C5.04162 54.719 4.89643 54.6838 4.75002 54.69C3.98002 54.69 3.14002 55.95 2.75002 56.76C2.66493 56.0626 2.66493 55.3574 2.75002 54.66C2.93935 53.9619 3.2148 53.2901 3.57002 52.66C3.75002 52.3 3.94002 51.94 4.10002 51.56C4.82497 52.044 5.59932 52.4497 6.41002 52.77C6.07009 53.664 5.84822 54.5986 5.75002 55.55L5.71002 55.58ZM4.33002 44.16C4.33002 44.16 4.33002 43.94 4.77002 43.94C6.56002 44.06 7.17002 45.74 7.35002 47.28C5.35002 46.15 4.21002 44.72 4.35002 44.16H4.33002ZM12.49 51.26C12.49 51.4 12.4 51.54 12.37 51.68L12.27 51.6C11.88 51.28 11.64 51.07 11.74 50.8C11.7614 50.7161 11.813 50.6431 11.8851 50.5951C11.9571 50.5471 12.0444 50.5274 12.13 50.54H12.4H12.63L12.49 51.26ZM14.63 56.65C14.54 56.4852 14.5117 56.2938 14.55 56.11C14.55 56.11 14.55 56.11 14.62 56.06C14.6656 56.0455 14.7145 56.0455 14.76 56.06L14.99 56.14L15.25 55.36L14.82 55.26L14.4 55.09L13.5 57.26L13.21 56.85L13.52 56.11C13.4739 56.12 13.4262 56.12 13.38 56.11C13.3414 56.1246 13.2987 56.1246 13.26 56.11C13.2201 56.0929 13.1855 56.0652 13.16 56.03C13.1157 55.9883 13.0815 55.937 13.06 55.88C13.076 55.9525 13.076 56.0275 13.06 56.1C13.0319 56.1699 12.9899 56.2333 12.9366 56.2866C12.8834 56.3399 12.8199 56.3818 12.75 56.41C12.6829 56.442 12.6094 56.4586 12.535 56.4586C12.4606 56.4586 12.3872 56.442 12.32 56.41C12.2055 56.3515 12.1045 56.2697 12.0235 56.1698C11.9426 56.0699 11.8835 55.9542 11.85 55.83C11.7332 55.4895 11.6856 55.1291 11.71 54.77H11.86C11.8443 55.0267 11.8888 55.2836 11.99 55.52C12.0655 55.7112 12.2126 55.8655 12.4 55.95C12.4969 55.9851 12.6031 55.9851 12.7 55.95C12.7465 55.9374 12.7891 55.9135 12.8241 55.8803C12.859 55.8471 12.8851 55.8058 12.9 55.76C12.9114 55.7005 12.9114 55.6395 12.9 55.58C12.9134 55.5207 12.9134 55.4593 12.9 55.4C12.7341 55.4226 12.5659 55.4226 12.4 55.4V54.95C12.558 55.0157 12.7301 55.0398 12.9 55.02C12.9665 55.0138 13.0301 54.9902 13.0845 54.9516C13.1389 54.9129 13.1822 54.8607 13.21 54.8C13.2251 54.7761 13.2331 54.7483 13.2331 54.72C13.2331 54.6917 13.2251 54.6639 13.21 54.64C13.19 54.5874 13.1507 54.5445 13.1 54.52C12.976 54.4696 12.8438 54.4425 12.71 54.44C12.5843 54.4389 12.4604 54.4699 12.35 54.53L12.25 54.08C12.3653 54.0381 12.4874 54.0177 12.61 54.02C12.7481 54.0221 12.8843 54.0527 13.01 54.11C13.0947 54.1598 13.1685 54.2263 13.227 54.3053C13.2854 54.3844 13.3272 54.4744 13.35 54.57C13.4346 54.7475 13.4558 54.9487 13.41 55.14C13.3437 55.2085 13.255 55.2511 13.16 55.26C13.0963 55.3051 13.0252 55.339 12.95 55.36C12.9979 55.443 13.0286 55.5349 13.04 55.63C13.0895 55.6767 13.1471 55.714 13.21 55.74C13.2915 55.7648 13.3785 55.7648 13.46 55.74C13.5442 55.7276 13.6236 55.6931 13.69 55.64L14.02 54.86L13.68 54.72L13.56 54.32L14.73 54.81L17.12 55.61L19.49 56.24L19.64 56.61L19.2 56.49L18.6 58.75L18.26 58.38L18.58 57.26L17.78 57.05C17.7508 57.0342 17.7182 57.026 17.685 57.026C17.6519 57.026 17.6192 57.0342 17.59 57.05C17.5263 57.1092 17.4812 57.1856 17.46 57.27C17.42 57.441 17.42 57.619 17.46 57.79C17.5042 57.9808 17.5857 58.161 17.7 58.32L17.51 58.41C17.3604 58.1458 17.2365 57.8679 17.14 57.58C17.0754 57.3974 17.0549 57.2021 17.08 57.01C17.0955 56.9403 17.1248 56.8743 17.166 56.816C17.2072 56.7576 17.2595 56.708 17.32 56.67C17.372 56.6303 17.4325 56.6034 17.4967 56.5912C17.561 56.5791 17.6272 56.5821 17.69 56.6L18.69 56.86L18.81 56.4L17.26 55.99H17.19L16.86 55.88L16.2 57.88L16.33 58.22L15.95 58.11C15.9043 58.0962 15.8559 58.0936 15.809 58.1023C15.762 58.111 15.7178 58.1308 15.68 58.16C15.5905 58.2175 15.5262 58.3069 15.5 58.41C15.4856 58.4414 15.4782 58.4755 15.4782 58.51C15.4782 58.5445 15.4856 58.5786 15.5 58.61C15.5325 58.6702 15.5858 58.7164 15.65 58.74C15.7591 58.7606 15.871 58.7606 15.98 58.74C16.0999 58.7278 16.2158 58.6903 16.32 58.63L16.46 59.01C16.3503 59.0601 16.2305 59.084 16.11 59.08C15.9745 59.0789 15.8399 59.0587 15.71 59.02C15.6277 58.9874 15.5542 58.9361 15.4952 58.8701C15.4361 58.8042 15.3933 58.7254 15.37 58.64C15.2858 58.4661 15.2612 58.2693 15.3 58.08C15.3163 58.0209 15.3454 57.9662 15.3851 57.9195C15.4249 57.8729 15.4743 57.8355 15.53 57.81C15.6079 57.7841 15.6921 57.7841 15.77 57.81L15.71 57.74L15.99 56.91L15.23 56.66L15.14 56.91C15.1249 56.9619 15.0933 57.0075 15.05 57.04C15.0303 57.0514 15.0078 57.0574 14.985 57.0574C14.9622 57.0574 14.9398 57.0514 14.92 57.04L14.63 56.65ZM28.6 57.69V60.03L28.16 59.79V59.26C28.0617 59.3364 27.9542 59.4002 27.84 59.45C27.7396 59.496 27.6305 59.5199 27.52 59.52C27.4073 59.5133 27.2971 59.4841 27.1958 59.4343C27.0945 59.3846 27.0042 59.3151 26.93 59.23C26.8461 59.1635 26.777 59.0803 26.727 58.9856C26.6771 58.8909 26.6475 58.7868 26.64 58.68C26.6416 58.6041 26.6604 58.5295 26.695 58.4619C26.7297 58.3943 26.7793 58.3355 26.84 58.29C26.9758 58.1811 27.1461 58.1244 27.32 58.13C27.4882 58.1318 27.6519 58.1841 27.79 58.28C27.9463 58.3759 28.0822 58.5017 28.19 58.65V57.72H26.46H25.9C26.0205 57.8121 26.1166 57.9322 26.18 58.07C26.2477 58.1992 26.2789 58.3444 26.27 58.49C26.2559 58.6732 26.1862 58.8477 26.07 58.99C25.9396 59.1501 25.7757 59.2797 25.59 59.37L26.1 60.05L25.87 60.22L25.42 59.44H25.34H25.23C25.1225 59.4117 25.0275 59.3483 24.96 59.26C24.8798 59.1804 24.8332 59.073 24.83 58.96C24.8378 58.8962 24.8658 58.8366 24.91 58.79C24.9295 58.7701 24.9529 58.7545 24.9787 58.7442C25.0045 58.7338 25.0322 58.729 25.06 58.73C25.1255 58.7354 25.1881 58.7598 25.24 58.8C25.3002 58.8468 25.3511 58.9045 25.39 58.97C25.4703 58.9398 25.5448 58.8958 25.61 58.84C25.6854 58.7728 25.7466 58.6912 25.79 58.6C25.5492 58.5566 25.3285 58.4375 25.16 58.26C25.0896 58.2062 25.0329 58.1365 24.9946 58.0565C24.9564 57.9765 24.9377 57.8886 24.94 57.8C24.9269 57.7577 24.9269 57.7123 24.94 57.67C24.9673 57.6283 25.0011 57.5911 25.04 57.56H24.76L24.31 57.5L24.01 59.82L23.62 59.5L23.69 58.97C23.5857 59.0383 23.4708 59.0889 23.35 59.12C23.2413 59.1442 23.1287 59.1442 23.02 59.12C22.7961 59.0776 22.5963 58.9527 22.46 58.77C22.3828 58.6951 22.3224 58.6047 22.2828 58.5047C22.2431 58.4047 22.2251 58.2974 22.23 58.19C22.2411 58.1147 22.2683 58.0427 22.3097 57.9788C22.3511 57.915 22.4058 57.8608 22.47 57.82C22.6155 57.7275 22.7899 57.6919 22.96 57.72C23.1256 57.744 23.2813 57.8132 23.41 57.92C23.5549 58.0338 23.6742 58.1769 23.76 58.34L23.88 57.42L22.22 57.26H21.92L21.51 59.56L21.16 59.13L21.52 57.13L21.1 57.06L20.92 56.71L21.7 56.85C21.66 56.73 21.63 56.63 21.61 56.55C21.5957 56.4841 21.5957 56.4159 21.61 56.35C21.6263 56.2454 21.6652 56.1456 21.7239 56.0576C21.7826 55.9695 21.8598 55.8953 21.95 55.84C22.1357 55.7178 22.3611 55.6713 22.58 55.71C22.8134 55.7788 23.0173 55.923 23.16 56.12C23.4081 56.4239 23.6134 56.7603 23.77 57.12L23.65 57.18C23.5373 56.9164 23.3819 56.6731 23.19 56.46C23.049 56.2981 22.8597 56.1859 22.65 56.14C22.5636 56.1235 22.4747 56.1248 22.3887 56.1437C22.3028 56.1626 22.2216 56.1988 22.15 56.25C22.0795 56.2964 22.0191 56.3566 21.9727 56.4271C21.9263 56.4976 21.8947 56.5769 21.88 56.66C21.867 56.7495 21.867 56.8405 21.88 56.93L22.22 56.99L24.65 57.3L26.41 57.43L28.87 57.48L29.1 57.8L28.6 57.69ZM44.6 50.53H44.87C44.9557 50.5174 45.0429 50.5371 45.115 50.5851C45.187 50.6331 45.2387 50.7061 45.26 50.79C45.36 51.06 45.13 51.27 44.73 51.59L44.63 51.67C44.5993 51.5275 44.5592 51.3872 44.51 51.25C44.4375 51.0283 44.384 50.8008 44.35 50.57H44.6V50.53ZM45.11 55.57C45.1237 55.6191 45.1237 55.6709 45.11 55.72C45.0978 55.7653 45.0693 55.8045 45.03 55.83C44.9454 55.8552 44.8565 55.8628 44.7688 55.8525C44.6812 55.8422 44.5965 55.8141 44.52 55.77C44.3444 55.7096 44.1957 55.5892 44.1 55.43C44.0918 55.4183 44.0875 55.4043 44.0875 55.39C44.0875 55.3757 44.0918 55.3617 44.1 55.35C44.1268 55.3096 44.1651 55.2782 44.21 55.26L44.43 55.16L44.16 54.46L43.76 54.64H43.67L42.94 54.92C43.0377 54.9709 43.1257 55.0386 43.2 55.12C43.2628 55.1799 43.3137 55.2512 43.35 55.33C43.3703 55.3985 43.3703 55.4715 43.35 55.54C43.3241 55.6232 43.2834 55.7011 43.23 55.77C43.4222 55.7107 43.6278 55.7107 43.82 55.77C43.8996 55.7949 43.9724 55.8375 44.033 55.8947C44.0936 55.9519 44.1405 56.0221 44.17 56.1C44.2078 56.1982 44.2212 56.3041 44.209 56.4086C44.1968 56.5131 44.1594 56.6131 44.1 56.7C43.9733 56.9083 43.7793 57.067 43.55 57.15C43.4227 57.1862 43.2892 57.1951 43.1583 57.1761C43.0273 57.1572 42.9018 57.1108 42.79 57.04C42.5303 56.927 42.3231 56.7197 42.21 56.46C42.1917 56.4016 42.1867 56.3399 42.1954 56.2793C42.204 56.2188 42.2261 56.1609 42.26 56.11C42.3469 55.973 42.463 55.8569 42.6 55.77C42.7139 55.7041 42.81 55.6114 42.88 55.5C42.9006 55.4562 42.9112 55.4084 42.9112 55.36C42.9112 55.3116 42.9006 55.2638 42.88 55.22C42.8549 55.1558 42.8213 55.0953 42.78 55.04C42.7502 54.9936 42.7088 54.9557 42.66 54.93L41.53 55.36L41.22 55.47L41.97 57.68L41.48 57.56L40.82 55.56L40.53 55.66L40.1 55.79L40.75 58.03L40.25 57.93L40.09 57.37C40.0623 57.4343 40.0173 57.4897 39.96 57.53C39.9047 57.5767 39.8399 57.6108 39.77 57.63C39.5565 57.6885 39.329 57.6672 39.13 57.57C39.0376 57.5484 38.9515 57.5054 38.8786 57.4447C38.8057 57.3839 38.748 57.307 38.71 57.22L38.44 56.3L38.18 56.37L37.86 56.45L38.41 58.72L37.93 58.56L37.44 56.56L37.13 56.64L36.69 56.72L37.12 59.02L36.65 58.84L36.58 58.47C36.5131 58.5924 36.4124 58.693 36.29 58.76C36.1478 58.8431 35.9921 58.9006 35.83 58.93C35.6278 58.9577 35.4219 58.9228 35.24 58.83C35.0334 58.7167 34.9134 58.5967 34.88 58.47C34.8661 58.4347 34.8661 58.3953 34.88 58.36C34.8956 58.3159 34.9193 58.2752 34.95 58.24C34.8226 58.2038 34.7036 58.1426 34.6 58.06C34.5177 57.9931 34.4583 57.9022 34.43 57.8C34.4203 57.7503 34.4224 57.699 34.4363 57.6504C34.4502 57.6017 34.4755 57.557 34.51 57.52C34.579 57.4373 34.6743 57.3808 34.78 57.36L35.3 57.26V57L34.16 57.34H33.85L34.16 59.68L33.71 59.47L33.65 58.94C33.5656 59.031 33.4678 59.1085 33.36 59.17C33.2658 59.2286 33.1601 59.2661 33.05 59.28C32.8212 59.2909 32.5966 59.216 32.42 59.07C32.3277 59.0148 32.248 58.941 32.186 58.8531C32.124 58.7653 32.0811 58.6654 32.06 58.56C32.0511 58.4855 32.0591 58.41 32.0833 58.339C32.1075 58.2681 32.1474 58.2035 32.2 58.15C32.3199 58.0266 32.479 57.9488 32.65 57.93C32.8143 57.9126 32.9803 57.9403 33.13 58.01C33.3006 58.0792 33.4516 58.1891 33.57 58.33L33.46 57.41L31.74 57.61H31.43L31.59 59.94L31.15 59.7L31.01 57.63H30.59L30.33 57.33L31.12 57.27L30.96 57C30.9261 56.9419 30.9056 56.877 30.9 56.81C30.8785 56.6127 30.936 56.4149 31.06 56.26C31.2104 56.0959 31.418 55.9957 31.64 55.98C31.8832 55.9891 32.116 56.0808 32.3 56.24C32.605 56.4645 32.8805 56.7266 33.12 57.02L33.02 57.11C32.8495 56.8814 32.6395 56.6849 32.4 56.53C32.2222 56.412 32.0134 56.3494 31.8 56.35C31.6242 56.3619 31.4596 56.4406 31.34 56.57C31.2821 56.6309 31.2379 56.7034 31.2103 56.7827C31.1827 56.862 31.1724 56.9464 31.18 57.03C31.1696 57.1164 31.1696 57.2036 31.18 57.29H31.52L33.96 57L36.65 56.49L37.91 56.18L39.97 55.58L40.75 55.32C40.6266 55.1211 40.4589 54.9534 40.26 54.83C40.1858 54.7806 40.1014 54.7486 40.0131 54.7364C39.9247 54.7243 39.8348 54.7324 39.75 54.76C39.6955 54.7783 39.6458 54.8084 39.6043 54.8482C39.5628 54.8879 39.5306 54.9364 39.51 54.99C39.4643 55.1057 39.4643 55.2343 39.51 55.35C39.5344 55.4063 39.5646 55.4599 39.6 55.51C39.6417 55.5584 39.6887 55.602 39.74 55.64H39.59C39.4941 55.5862 39.4119 55.5109 39.35 55.42C39.3166 55.3687 39.2865 55.3152 39.26 55.26C39.2007 55.1055 39.2007 54.9345 39.26 54.78C39.2925 54.705 39.3405 54.6377 39.4008 54.5826C39.4611 54.5274 39.5324 54.4857 39.61 54.46C39.7287 54.4281 39.8532 54.4252 39.9732 54.4512C40.0933 54.4773 40.2053 54.5318 40.3 54.61C40.5708 54.8033 40.7932 55.0566 40.95 55.35L41.25 55.25L43.33 54.46L45.62 53.46L45.97 53.65L45.56 53.84L46.56 55.97L46.06 55.9L45.7 55.1L44.97 55.43L45.11 55.57ZM47.44 56.37L46.72 56.13C46.6672 56.1195 46.6128 56.1195 46.56 56.13C46.5277 56.1186 46.4924 56.1186 46.46 56.13C46.4266 56.1442 46.3985 56.1687 46.38 56.2L46.28 56.34L46.03 56.26L46.16 56.1L46.26 56.02C46.2925 56.0093 46.3275 56.0093 46.36 56.02C46.3927 56.0106 46.4274 56.0106 46.46 56.02L47.53 56.31L47.44 56.37ZM49.66 47.26C49.84 45.72 50.45 44.04 52.24 43.92C52.63 43.92 52.66 44.09 52.68 44.14C52.8 44.7 51.68 46.14 49.68 47.26H49.66ZM54.33 56.74C53.9 55.92 53.06 54.74 52.33 54.67C52.1838 54.665 52.0391 54.7006 51.912 54.773C51.7848 54.8454 51.6803 54.9517 51.61 55.08C51.5162 55.2327 51.4359 55.3933 51.37 55.56C51.2674 54.6126 51.0456 53.6819 50.71 52.79C51.5207 52.4697 52.2951 52.064 53.02 51.58C53.18 51.96 53.37 52.32 53.55 52.68C53.907 53.3092 54.1825 53.9813 54.37 54.68C54.4552 55.3741 54.4552 56.0759 54.37 56.77" fill="#B81F53"/>
<path d="M67.16 62.86L71.27 53.86C71.69 52.95 72.1 52.01 73.63 52.01C73.265 52.609 72.9312 53.2265 72.63 53.86L66.46 67.26L60.34 53.84C60.0458 53.203 59.7118 52.5851 59.34 51.99C62.14 51.99 62.58 52.99 63 53.84L67.16 62.86Z" fill="#B81F53"/>
<path d="M78.22 66.2601H75.8V54.26C75.8 53.26 75.8 52.05 78.42 52.05C78.3028 52.7812 78.236 53.5196 78.22 54.26V66.2601Z" fill="#B81F53"/>
<path d="M86.25 53.18C84.32 53.18 83.39 54.1801 83.39 55.3301C83.3837 55.6111 83.4587 55.8879 83.6059 56.1274C83.7531 56.3669 83.9664 56.5588 84.22 56.68L89.22 59.14C89.8575 59.4037 90.4053 59.846 90.7974 60.4137C91.1895 60.9814 91.4091 61.6504 91.43 62.34C91.43 64.34 89.56 66.34 86.2 66.34C84.59 66.34 83.2 66.26 81.31 66.24L82.38 64.7301C83.6269 65.0169 84.9007 65.171 86.18 65.1901C88.41 65.1901 89.46 64.06 89.46 63.02C89.4561 62.7063 89.3589 62.4009 89.1808 62.1427C89.0027 61.8845 88.7518 61.6851 88.46 61.57L83.53 59.13C82.9147 58.8365 82.3954 58.3743 82.0324 57.7971C81.6695 57.22 81.478 56.5517 81.48 55.87C81.48 53.96 82.99 52.05 86.19 52.05C87.62 52.05 89.07 52.1301 90.72 52.1501C90.7255 52.3393 90.6903 52.5275 90.6167 52.7019C90.5431 52.8763 90.4328 53.0329 90.2934 53.1609C90.154 53.289 89.9886 53.3855 89.8086 53.444C89.6286 53.5026 89.4381 53.5216 89.25 53.5C88.2421 53.2913 87.2185 53.1676 86.19 53.1301" fill="#B81F53"/>
<path d="M96.39 58.63H102.93V54.2C102.93 53.2 102.93 51.99 105.55 51.99C105.433 52.7212 105.366 53.4596 105.35 54.2V64.26C105.365 64.9938 105.432 65.7256 105.55 66.45C102.93 66.45 102.93 65.24 102.93 64.24V59.83H96.39V64.26C96.39 65.26 96.39 66.47 93.77 66.47C93.8878 65.7456 93.9546 65.0138 93.97 64.28V54.26C93.9546 53.5196 93.8878 52.7811 93.77 52.05C96.39 52.05 96.39 53.26 96.39 54.26V58.63Z" fill="#B81F53"/>
<path d="M118.37 51.1899L123.76 62.4599L126.76 53.9199C127.08 52.9699 127.48 51.9899 128.89 51.9899C128.89 51.9899 128.41 52.9899 128.06 53.9199L123.39 67.2599L117.77 55.3999L112.44 67.2599L107.77 53.8899C107.531 53.231 107.254 52.5865 106.94 51.9599C109.62 51.9599 109.94 52.9599 110.28 53.8899L113.28 62.4499L118.37 51.1899Z" fill="#B81F53"/>
<path d="M136.79 61.0499H131.84L130.21 64.6299C129.79 65.5299 129.39 66.4799 127.86 66.4799C128.225 65.8809 128.559 65.2634 128.86 64.6299L134.98 51.1799L141.16 64.6299C141.457 65.2656 141.791 65.8834 142.16 66.4799C139.36 66.4799 138.92 65.4799 138.5 64.6299L136.79 61.0499ZM132.38 59.8399H136.24L134.31 55.6099L132.38 59.8399Z" fill="#B81F53"/>
<path d="M156.94 62.86L161.05 53.86C161.47 52.95 161.88 52.01 163.41 52.01C163.045 52.609 162.711 53.2265 162.41 53.86L156.28 67.26L150.16 53.84C149.866 53.203 149.532 52.5851 149.16 51.99C151.96 51.99 152.4 52.99 152.82 53.84L156.94 62.86Z" fill="#B81F53"/>
<path d="M168.03 66.2601H165.61V54.26C165.61 53.26 165.61 52.05 168.23 52.05C168.113 52.7812 168.046 53.5196 168.03 54.26V66.2601Z" fill="#B81F53"/>
<path d="M176.65 52.0901C178.546 52.0901 180.365 52.8434 181.706 54.1843C183.047 55.5252 183.8 57.3438 183.8 59.2401C183.8 61.1364 183.047 62.955 181.706 64.2959C180.365 65.6368 178.546 66.3901 176.65 66.3901C174.76 66.3901 173.21 66.2901 171.65 66.2901C171.767 65.6295 171.834 64.9609 171.85 64.2901V54.2601C171.841 53.5889 171.774 52.9198 171.65 52.2601C173.31 52.2601 174.97 52.1501 176.65 52.1501V52.0901ZM174.27 53.2601V65.2601C175.14 65.2601 175.9 65.3201 176.67 65.3201C179.77 65.3201 181.1 62.7001 181.1 59.2601C181.1 55.8201 179.53 53.2001 176.67 53.2001C175.8 53.2001 175.04 53.2601 174.27 53.2601Z" fill="#B81F53"/>
<path d="M192.27 58.26C191.89 58.9548 191.704 59.7387 191.73 60.53V66.26H189.31V60.54C189.346 59.833 189.157 59.1329 188.77 58.54L185.49 54.26C184.832 53.4715 184.131 52.7204 183.39 52.01C186.71 52.01 187.39 52.9 188.04 53.78L191.04 57.78L194.04 53.72C194.364 53.1599 194.841 52.7036 195.415 52.4044C195.988 52.1051 196.635 51.9753 197.28 52.03C196.642 52.634 196.044 53.2787 195.49 53.96L192.27 58.26Z" fill="#B81F53"/>
<path d="M205.27 61.0499H200.27L198.64 64.6299C198.22 65.5299 197.81 66.4799 196.29 66.4799C196.655 65.8809 196.989 65.2634 197.29 64.6299L203.41 51.1799L209.53 64.6299C209.827 65.2656 210.161 65.8834 210.53 66.4799C207.73 66.4799 207.29 65.4799 206.87 64.6299L205.27 61.0499ZM200.86 59.8399H204.72L202.79 55.6099L200.86 59.8399Z" fill="#B81F53"/>
<path d="M221.98 56C221.98 58.4 219.81 60 217.23 60C216.37 60 215.48 59.94 214.61 59.94V64.26C214.61 65.26 214.61 66.47 211.99 66.47C212.097 65.7381 212.154 64.9997 212.16 64.26V54.26C212.151 53.5888 212.084 52.9197 211.96 52.26H214.88C215.32 52.26 215.67 52.26 216.03 52.26H217.2C219.77 52.26 221.95 53.68 221.95 56.1L221.98 56ZM214.58 53.3V59.08C215.37 59.08 216.23 59.14 216.79 59.14C217.169 59.1362 217.544 59.0536 217.89 58.8975C218.236 58.7414 218.545 58.5151 218.799 58.2331C219.053 57.9511 219.245 57.6194 219.364 57.2591C219.483 56.8988 219.526 56.5177 219.49 56.14C219.525 55.7704 219.48 55.3976 219.358 55.0468C219.237 54.696 219.041 54.3752 218.786 54.1062C218.53 53.8371 218.219 53.6259 217.875 53.4869C217.531 53.3478 217.161 53.2841 216.79 53.3C216.07 53.3 215.34 53.3 214.58 53.3Z" fill="#B81F53"/>
<path d="M226.71 65.08H232.16C232.33 65.0607 232.503 65.0763 232.667 65.1259C232.831 65.1755 232.983 65.2581 233.114 65.3685C233.245 65.479 233.352 65.615 233.429 65.7683C233.506 65.9216 233.55 66.0889 233.56 66.26H224.1C224.225 65.6005 224.292 64.9312 224.3 64.26V54.26C224.291 53.5888 224.224 52.9197 224.1 52.26H233.56C233.546 52.4285 233.499 52.5925 233.421 52.7423C233.342 52.8921 233.234 53.0246 233.104 53.1319C232.973 53.2392 232.822 53.3191 232.66 53.3669C232.498 53.4147 232.328 53.4293 232.16 53.41H226.72V58.64H231.72V59.85H226.72L226.71 65.08Z" fill="#B81F53"/>
<path d="M238.58 65.08H244.02C244.191 65.0592 244.365 65.0737 244.53 65.1227C244.695 65.1716 244.848 65.2539 244.981 65.3645C245.113 65.4751 245.221 65.6117 245.298 65.7657C245.375 65.9197 245.42 66.088 245.43 66.26H235.97C236.095 65.6005 236.162 64.9312 236.17 64.26V54.26C236.161 53.5888 236.094 52.9197 235.97 52.26H245.43C245.424 52.4346 245.382 52.6062 245.307 52.7638C245.231 52.9213 245.124 53.0614 244.991 53.1752C244.859 53.289 244.704 53.374 244.537 53.4247C244.369 53.4755 244.193 53.4909 244.02 53.47H238.58V58.7H243.58V59.91H238.58V65.14V65.08Z" fill="#B81F53"/>
<path d="M246.43 52.1899H259.92C259.92 52.2699 259.92 53.4399 258.92 53.4399C257.65 53.4399 256.99 53.3599 255.52 53.3599H254.52V66.2599H251.86V53.3599H250.86C249.39 53.3599 248.73 53.4199 247.46 53.4399C246.46 53.4399 246.46 52.2699 246.46 52.1899" fill="#B81F53"/>
<path d="M263.95 58.63H270.49V54.2C270.49 53.2 270.49 51.99 273.11 51.99C272.993 52.7212 272.926 53.4596 272.91 54.2V64.26C272.925 64.9938 272.992 65.7256 273.11 66.45C270.49 66.45 270.49 65.24 270.49 64.24V59.83H263.95V64.26C263.95 65.26 263.95 66.47 261.33 66.47C261.448 65.7456 261.515 65.0138 261.53 64.28V54.26C261.515 53.5196 261.448 52.7811 261.33 52.05C263.95 52.05 263.95 53.26 263.95 54.26V58.63Z" fill="#B81F53"/>
<path d="M283.45 61.0499H278.45L276.82 64.6299C276.4 65.5299 275.99 66.4799 274.46 66.4799C274.825 65.8809 275.159 65.2634 275.46 64.6299L281.58 51.1799L287.7 64.6299C287.997 65.2656 288.331 65.8834 288.7 66.4799C285.9 66.4799 285.46 65.4799 285.04 64.6299L283.45 61.0499ZM279.04 59.8399H282.9L280.97 55.6099L279.04 59.8399Z" fill="#B81F53"/>
<path d="M299.69 67.2599L294.3 55.9899L291.3 64.5299C290.98 65.5299 290.58 66.4599 289.17 66.4599C289.17 66.4599 289.65 65.4599 290 64.5299L294.67 51.1599L300.29 63.0199L305.62 51.1599L310.29 64.5299C310.529 65.1888 310.806 65.8333 311.12 66.4599C308.44 66.4599 308.12 65.4599 307.78 64.5299L304.78 55.9699L299.69 67.2599Z" fill="#B81F53"/>
<path d="M81.03 0L62.79 40.07C61.95 41.91 60.33 44.67 59.33 46.31H59.79C61.1367 46.4023 62.4807 46.0947 63.6531 45.4257C64.8256 44.7568 65.7743 43.7563 66.38 42.55C66.75 41.9 67.07 41.23 67.38 40.55L67.48 40.35L72 30.43H86.16L90.7 40.36C92 43.14 93.47 46.29 102.27 46.29H102.74C101.468 44.2778 100.313 42.1944 99.28 40.05L81.03 0ZM73.55 27L79.05 14.92L84.58 27H73.55Z" fill="#B81F53"/>
<path d="M155.24 0L139.34 35.33L122.6 0L108.68 39.83C107.68 42.71 105.87 46.31 105.87 46.31H106.22C111.13 46.31 112.41 42.55 113.22 40.07L121.61 16.26L137.61 49.69L152.61 16.26L160.99 40.17C161.99 43.04 163.2 46.3 171.59 46.3H171.93C171.93 46.3 170.15 42.7 169.13 39.82L155.24 0Z" fill="#B81F53"/>
<path d="M217.68 8.48994V46.1799H226.31V8.48994C226.356 6.31884 226.553 4.15354 226.9 2.00993L227.04 1.17993H226.16C217.65 1.17993 217.65 5.39994 217.65 8.48994" fill="#B81F53"/>
<path d="M270.48 5.60991C273.41 5.60991 274.19 2.81992 274.19 1.16992H232.56C232.56 2.81992 233.34 5.60991 236.29 5.60991C237.84 5.60991 239.11 5.53991 240.29 5.49991C242.1 5.42991 243.8 5.36991 246.38 5.36991H248.72V46.1399H257.95V5.36991H260.29C262.86 5.36991 264.57 5.42991 266.38 5.49991C267.61 5.49991 268.87 5.58991 270.44 5.60991" fill="#B81F53"/>
<path d="M207.16 41.4599L195.72 26.1199C202.72 24.9199 208.24 19.8599 207.83 12.4499C207.44 5.44994 201.12 1.17993 193.44 1.17993C187.74 1.17993 182.44 1.41993 177.24 1.41993C177.612 3.399 177.813 5.40644 177.84 7.41994L177.6 39.7199C177.553 41.9311 177.352 44.1364 177 46.3199C184.8 46.3199 184.8 42.7199 184.8 39.7199L185.04 4.59994C188.22 4.59994 190.2 4.46994 192.24 4.47994C194.44 4.47084 196.559 5.30394 198.164 6.80834C199.769 8.31274 200.737 10.3742 200.87 12.5699C201.44 17.9099 199.58 21.8699 195.7 23.6299C192.85 24.7899 186.7 24.6299 186.7 24.6299L199.36 41.6299C201.16 44.0299 203.61 46.3199 211.46 46.3199C209.907 44.8098 208.47 43.1852 207.16 41.4599Z" fill="#B81F53"/>
<path d="M307.59 40.07L289.35 0L271.16 40.07C270.32 41.91 268.7 44.67 267.7 46.31H268.16C269.507 46.4023 270.851 46.0947 272.023 45.4257C273.196 44.7568 274.144 43.7563 274.75 42.55C275.12 41.9 275.44 41.23 275.75 40.55L275.85 40.35L280.37 30.43H294.54L299.08 40.36C300.38 43.14 301.85 46.29 310.65 46.29H311.12C309.851 44.2711 308.693 42.1847 307.65 40.04L307.59 40.07ZM281.88 27L287.38 14.92L292.91 27H281.88Z" fill="#B81F53"/>
<path d="M77.38 76.76H77.79C78.18 76.76 78.24 76.58 78.24 76.3V72.62C78.24 72.34 78.18 72.21 77.79 72.16L77.38 72.11V72.01H79.51C79.8416 71.9887 80.174 72.0356 80.4867 72.1478C80.7994 72.2601 81.0857 72.4352 81.3281 72.6625C81.5704 72.8898 81.7636 73.1643 81.8956 73.4692C82.0277 73.7741 82.0958 74.1028 82.0958 74.435C82.0958 74.7672 82.0277 75.0959 81.8956 75.4008C81.7636 75.7057 81.5704 75.9802 81.3281 76.2075C81.0857 76.4348 80.7994 76.6099 80.4867 76.7222C80.174 76.8344 79.8416 76.8813 79.51 76.86H77.38V76.76ZM79.51 76.76C80.77 76.76 81.39 75.97 81.39 74.46C81.39 72.95 80.75 72.17 79.51 72.17H78.78V76.26C78.78 76.58 78.91 76.72 79.26 76.72H79.51V76.76Z" fill="#1B1919"/>
<path d="M87.47 74.2601C87.95 74.2601 88.07 74.0201 88.24 73.2001H88.35C88.35 73.5701 88.35 73.9501 88.35 74.3301C88.35 74.7101 88.35 75.0801 88.35 75.4601H88.24C88.06 74.6301 87.95 74.4001 87.47 74.4001H86.81V76.2601C86.81 76.5801 86.94 76.7201 87.29 76.7201H88.05C88.86 76.7201 89.05 76.5101 89.35 75.1601H89.48L89.38 76.8501H85.38V76.7501L85.79 76.7001C86.18 76.7001 86.24 76.5201 86.24 76.2401V72.6301C86.24 72.3501 86.18 72.2201 85.79 72.1701H85.38V72.0701H89.16L89.25 73.6201H89.16C88.84 72.4001 88.72 72.2001 87.98 72.2001H86.86V74.3601H87.51L87.47 74.2601Z" fill="#1B1919"/>
<path d="M94.97 74.2601C95.45 74.2601 95.57 74.0201 95.74 73.2001H95.85C95.85 73.5701 95.85 73.9501 95.85 74.3301C95.85 74.7101 95.85 75.0801 95.85 75.4601H95.74C95.56 74.6301 95.45 74.4001 94.97 74.4001H94.31V76.2601C94.31 76.5801 94.44 76.7201 94.79 76.7201H95.55C96.36 76.7201 96.55 76.5101 96.85 75.1601H96.98L96.88 76.8501H92.88V76.7501L93.29 76.7001C93.68 76.7001 93.74 76.5201 93.74 76.2401V72.6301C93.74 72.3501 93.68 72.2201 93.29 72.1701H92.88V72.0701H96.63L96.72 73.6201H96.59C96.27 72.4001 96.15 72.2001 95.41 72.2001H94.29V74.3601H94.94L94.97 74.2601Z" fill="#1B1919"/>
<path d="M101.42 72.31V75.85C101.42 76.5 101.53 76.64 101.98 76.71H102.27V76.81H100.4V76.71H100.68C101.14 76.64 101.25 76.5 101.25 75.85V72.62C101.25 72.34 101.19 72.21 100.8 72.16L100.39 72.11V72.01H101.89L103.59 76.21L105.3 72.01H106.78V72.11L106.37 72.16C105.98 72.16 105.93 72.34 105.93 72.62V76.26C105.93 76.54 105.99 76.67 106.37 76.72L106.78 76.77V76.87H104.52V76.77L104.93 76.72C105.32 76.72 105.37 76.54 105.37 76.26V72.26L103.49 76.87H103.29L101.42 72.31Z" fill="#1B1919"/>
<path d="M112.16 74.2601C112.64 74.2601 112.76 74.0201 112.93 73.2001H113.04C113.04 73.5701 113.04 73.9501 113.04 74.3301C113.04 74.7101 113.04 75.0801 113.04 75.4601H112.93C112.75 74.6301 112.64 74.4001 112.16 74.4001H111.5V76.2601C111.5 76.5801 111.63 76.7201 111.98 76.7201H112.74C113.55 76.7201 113.74 76.5101 114.04 75.1601H114.16L114.06 76.8501H110.06V76.7501L110.47 76.7001C110.86 76.7001 110.92 76.5201 110.92 76.2401V72.6301C110.92 72.3501 110.85 72.2201 110.47 72.1701H110.06V72.0701H113.81L113.9 73.6201H113.77C113.45 72.4001 113.33 72.2001 112.59 72.2001H111.47V74.3601H112.16V74.2601Z" fill="#1B1919"/>
<path d="M117.57 76.76H117.98C118.37 76.76 118.43 76.58 118.43 76.3V72.62C118.43 72.34 118.37 72.21 117.98 72.16L117.57 72.11V72.01H119.7C120.032 71.9887 120.364 72.0356 120.677 72.1478C120.989 72.2601 121.276 72.4352 121.518 72.6625C121.76 72.8898 121.954 73.1643 122.086 73.4692C122.218 73.7741 122.286 74.1028 122.286 74.435C122.286 74.7672 122.218 75.0959 122.086 75.4008C121.954 75.7057 121.76 75.9802 121.518 76.2075C121.276 76.4348 120.989 76.6099 120.677 76.7222C120.364 76.8344 120.032 76.8813 119.7 76.86H117.57V76.76ZM119.7 76.76C120.96 76.76 121.58 75.97 121.58 74.46C121.58 72.95 120.94 72.17 119.7 72.17H118.97V76.26C118.97 76.58 119.1 76.72 119.45 76.72H119.7V76.76Z" fill="#1B1919"/>
<path d="M131.32 76.86H128.98V76.76H129.41C129.82 76.76 129.87 76.57 129.87 76.28V72.14H129.23C128.53 72.14 128.4 72.34 128.1 73.65H127.99L128.05 72.02H132.25L132.31 73.65H132.16C131.85 72.34 131.72 72.14 131.02 72.14H130.39V76.26C130.39 76.55 130.45 76.69 130.85 76.74H131.28V76.84L131.32 76.86Z" fill="#1B1919"/>
<path d="M138.16 76.9701C137.651 77.0063 137.143 76.8883 136.702 76.6317C136.261 76.375 135.908 75.9915 135.688 75.5311C135.468 75.0707 135.392 74.5548 135.47 74.0505C135.547 73.5462 135.775 73.077 136.123 72.7039C136.471 72.3308 136.923 72.0712 137.421 71.9589C137.918 71.8465 138.438 71.8866 138.913 72.074C139.387 72.2613 139.794 72.5873 140.081 73.0093C140.368 73.4313 140.521 73.9299 140.52 74.4401C140.543 74.764 140.5 75.0893 140.392 75.3955C140.284 75.7018 140.113 75.9824 139.892 76.2199C139.67 76.4574 139.402 76.6466 139.104 76.7757C138.806 76.9048 138.485 76.971 138.16 76.9701ZM138.16 76.8601C139.3 76.8601 139.87 75.8601 139.87 74.4301C139.87 73.0001 139.29 72.0101 138.16 72.0101C137.03 72.0101 136.45 73.0701 136.45 74.4301C136.45 75.7901 137.02 76.8601 138.16 76.8601Z" fill="#1B1919"/>
<path d="M146.96 76.76H147.37C147.76 76.76 147.82 76.58 147.82 76.3V72.62C147.82 72.34 147.76 72.21 147.37 72.16L146.96 72.11V72.01H148.96C149.96 72.01 150.8 72.26 150.8 73.12C150.8 73.81 150.17 74.21 149.34 74.3C150.34 74.3 151.05 74.66 151.05 75.49C151.05 76.32 150.26 76.84 149.05 76.84H146.96V76.76ZM148.96 74.26C149.87 74.26 150.23 73.85 150.23 73.13C150.23 72.41 149.77 72.13 148.97 72.13H148.36V74.26H148.96ZM148.37 76.26C148.37 76.58 148.5 76.72 148.85 76.72H149.16C150.05 76.72 150.5 76.36 150.5 75.49C150.5 74.62 149.97 74.37 149.01 74.37H148.42V76.26H148.37Z" fill="#1B1919"/>
<path d="M156.59 74.2601C157.07 74.2601 157.19 74.0201 157.36 73.2001H157.47C157.47 73.5701 157.47 73.9501 157.47 74.3301C157.47 74.7101 157.47 75.0801 157.47 75.4601H157.36C157.18 74.6301 157.07 74.4001 156.59 74.4001H155.93V76.2601C155.93 76.5801 156.06 76.7201 156.41 76.7201H157.16C157.97 76.7201 158.11 76.5101 158.46 75.1601H158.59L158.49 76.8501H154.49V76.7501L154.9 76.7001C155.29 76.7001 155.35 76.5201 155.35 76.2401V72.6301C155.35 72.3501 155.29 72.2201 154.9 72.1701H154.49V72.0701H158.24L158.33 73.6201H158.2C157.88 72.4001 157.76 72.2001 157.01 72.2001H155.89V74.3601H156.56L156.59 74.2601Z" fill="#1B1919"/>
<path d="M167.85 76.96C167.606 76.9974 167.357 76.9769 167.123 76.9002C166.889 76.8234 166.676 76.6926 166.502 76.5183C166.327 76.344 166.197 76.1312 166.12 75.8969C166.043 75.6627 166.023 75.4137 166.06 75.17V72.62C166.06 72.34 165.99 72.21 165.61 72.16L165.2 72.11V72.01H167.47V72.11L167.06 72.16C166.68 72.16 166.61 72.34 166.61 72.62V75.17C166.61 76.41 167.22 76.73 168.04 76.73C168.246 76.7491 168.453 76.7211 168.646 76.648C168.84 76.575 169.014 76.4589 169.155 76.3085C169.297 76.1581 169.403 75.9775 169.464 75.7802C169.526 75.5829 169.541 75.3742 169.51 75.17V73.02C169.51 72.37 169.4 72.23 168.95 72.16L168.66 72.11V72.01H170.54V72.11L170.25 72.16C169.79 72.23 169.68 72.37 169.68 73.02V75.17C169.708 75.4154 169.68 75.664 169.597 75.8968C169.515 76.1296 169.38 76.3405 169.203 76.5132C169.027 76.6859 168.813 76.816 168.578 76.8934C168.344 76.9709 168.095 76.9936 167.85 76.96Z" fill="#1B1919"/>
<path d="M174.79 72.47V75.85C174.79 76.5 174.9 76.64 175.35 76.71H175.64V76.81H173.77V76.71H174.06C174.52 76.64 174.63 76.49 174.63 75.85V72.62C174.63 72.34 174.57 72.21 174.18 72.16L173.77 72.11V72.01H175.16L177.97 76.14V73.03C177.97 72.38 177.86 72.24 177.41 72.17H177.12V72.07H179V72.17H178.71C178.25 72.24 178.15 72.38 178.15 73.03V76.88H177.81L174.79 72.47Z" fill="#1B1919"/>
<path d="M182.24 76.76H182.65C183.04 76.76 183.1 76.58 183.1 76.3V72.62C183.1 72.34 183.04 72.21 182.65 72.16L182.24 72.11V72.01H184.51V72.11L184.09 72.16C183.71 72.16 183.65 72.34 183.65 72.62V76.26C183.65 76.54 183.72 76.67 184.09 76.72L184.51 76.77V76.87H182.24V76.76Z" fill="#1B1919"/>
<path d="M188.49 72.82C188.3 72.34 188.18 72.21 187.86 72.16H187.58V72.06H189.78V72.16H189.4C189.02 72.16 188.93 72.38 189.05 72.71L190.37 76.3L191.54 73.15C191.81 72.42 191.74 72.22 191.24 72.15H190.93V72.05H192.77V72.15H192.56C192.13 72.24 191.99 72.4 191.69 73.15L190.54 76.15L190.31 76.81H190.03L188.49 72.82Z" fill="#1B1919"/>
<path d="M197.92 74.2601C198.4 74.2601 198.52 74.0201 198.69 73.2001H198.8C198.8 73.5701 198.8 73.9501 198.8 74.3301C198.8 74.7101 198.8 75.0801 198.8 75.4601H198.69C198.51 74.6301 198.4 74.4001 197.92 74.4001H197.26V76.2601C197.26 76.5801 197.39 76.7201 197.74 76.7201H198.5C199.31 76.7201 199.45 76.5101 199.8 75.1601H199.93L199.83 76.8501H195.83V76.7501L196.24 76.7001C196.63 76.7001 196.69 76.5201 196.69 76.2401V72.6301C196.69 72.3501 196.63 72.2201 196.24 72.1701H195.83V72.0701H199.58L199.67 73.6201H199.54C199.22 72.4001 199.1 72.2001 198.35 72.2001H197.26V74.3601H197.92V74.2601Z" fill="#1B1919"/>
<path d="M207.16 76.86C206.83 76.86 206.77 76.79 206.65 76.55L205.65 74.55H205.29H204.71V76.26C204.71 76.55 204.77 76.68 205.17 76.73H205.59V76.83H203.31V76.73H203.72C204.1 76.73 204.17 76.55 204.17 76.27V72.62C204.17 72.34 204.11 72.21 203.72 72.16L203.31 72.11V72.01H205.31C206.54 72.01 207.31 72.37 207.31 73.29C207.31 73.96 206.73 74.29 206.15 74.45C206.257 74.5878 206.35 74.7351 206.43 74.89L207.07 76.12C207.29 76.55 207.38 76.65 207.77 76.72H208.03V76.82L207.16 76.86ZM204.72 74.44H205.31C206.24 74.44 206.68 74.06 206.68 73.27C206.68 72.48 206.23 72.11 205.29 72.11H204.72V74.41V74.44Z" fill="#1B1919"/>
<path d="M213.06 76.9699C212.801 76.9839 212.542 76.9421 212.3 76.8472C212.059 76.7523 211.84 76.6066 211.66 76.4199L211.45 76.9499H211.38V74.9499H211.52C211.78 76.3699 212.3 76.8299 213.07 76.8299C213.209 76.8424 213.348 76.8259 213.48 76.7813C213.612 76.7366 213.733 76.665 213.836 76.5708C213.939 76.4767 214.02 76.3622 214.076 76.2346C214.132 76.107 214.161 75.9691 214.16 75.8299C214.16 75.1399 213.62 74.8899 212.9 74.6299C212.18 74.3699 211.49 73.9399 211.49 73.1899C211.493 73.0063 211.535 72.8253 211.611 72.6584C211.688 72.4915 211.798 72.3423 211.935 72.2202C212.073 72.0981 212.233 72.0057 212.408 71.9488C212.583 71.892 212.767 71.8719 212.95 71.8899C213.177 71.8783 213.404 71.9182 213.613 72.0065C213.823 72.0948 214.01 72.2293 214.16 72.3999L214.36 71.9099H214.43V73.7999H214.29C214.03 72.5099 213.65 71.9999 212.95 71.9999C212.822 71.9917 212.693 72.0099 212.572 72.0535C212.451 72.097 212.34 72.165 212.246 72.2531C212.152 72.3412 212.078 72.4476 212.027 72.5658C211.976 72.6839 211.95 72.8112 211.95 72.9399C211.95 73.5999 212.49 73.8799 213.25 74.1499C214.01 74.4199 214.64 74.7499 214.64 75.6099C214.63 75.7997 214.582 75.9855 214.498 76.1562C214.415 76.3269 214.297 76.479 214.154 76.6032C214.01 76.7274 213.842 76.8213 213.661 76.8792C213.48 76.937 213.289 76.9577 213.1 76.9399" fill="#1B1919"/>
<path d="M218.16 76.76H218.57C218.95 76.76 219.02 76.58 219.02 76.3V72.62C219.02 72.34 218.96 72.21 218.57 72.16L218.16 72.11V72.01H220.43V72.11L220.01 72.16C219.63 72.16 219.57 72.34 219.57 72.62V76.26C219.57 76.54 219.63 76.67 220.01 76.72L220.43 76.77V76.87H218.16V76.76Z" fill="#1B1919"/>
<path d="M227.16 76.86H224.82V76.76H225.25C225.66 76.76 225.71 76.57 225.71 76.28V72.14H225.07C224.37 72.14 224.24 72.34 223.94 73.65H223.83L223.89 72.02H228.09L228.15 73.65H228.04C227.73 72.34 227.6 72.14 226.9 72.14H226.27V76.26C226.27 76.55 226.33 76.69 226.73 76.74H227.16V76.84V76.86Z" fill="#1B1919"/>
<path d="M233.7 76.8601H232.52V76.7601L232.95 76.7101C233.36 76.7101 233.42 76.5201 233.42 76.2301V74.9801L232.16 72.7301C231.92 72.3001 231.78 72.2001 231.47 72.1601H231.24V72.0601H233.44V72.1601H233.03C232.65 72.1601 232.62 72.3901 232.77 72.6701L233.93 74.7601L234.83 73.1801C234.978 72.9678 235.077 72.7253 235.12 72.4701C235.12 72.2901 234.99 72.2101 234.66 72.1601H234.41V72.0601H236.23V72.1601H236.04C235.64 72.2401 235.44 72.4201 234.96 73.2501L233.96 74.9201V76.2601C233.96 76.5501 234.02 76.6901 234.43 76.7401H234.86V76.8401C234.46 76.8401 234.08 76.8401 233.69 76.8401" fill="#1B1919"/>
<path d="M75.04 74.38H0V74.63H75.04V74.38Z" fill="#1B1919"/>
<path d="M311.1 74.38H237.63V74.63H311.1V74.38Z" fill="#1B1919"/>
<path d="M361.388 29.1054C361.388 31.538 360.506 33.435 358.741 34.7962C356.976 36.1575 354.582 36.8381 351.557 36.8381C348.279 36.8381 345.759 36.4158 343.994 35.5714V32.4707C345.128 32.9497 346.364 33.3278 347.7 33.6051C349.036 33.8824 350.359 34.0211 351.67 34.0211C353.813 34.0211 355.426 33.6177 356.51 32.8111C357.594 31.9918 358.136 30.8574 358.136 29.4079C358.136 28.45 357.941 27.6686 357.55 27.0636C357.172 26.446 356.529 25.8788 355.621 25.362C354.727 24.8452 353.359 24.2591 351.519 23.6037C348.947 22.6836 347.107 21.5933 345.998 20.3329C344.902 19.0725 344.353 17.4277 344.353 15.3984C344.353 13.2683 345.154 11.573 346.754 10.3126C348.355 9.0522 350.473 8.422 353.107 8.422C355.855 8.422 358.382 8.9262 360.688 9.9345L359.686 12.7326C357.405 11.7747 355.187 11.2957 353.031 11.2957C351.33 11.2957 350 11.6613 349.042 12.3923C348.084 13.1233 347.605 14.138 347.605 15.4362C347.605 16.3941 347.782 17.1819 348.135 17.7995C348.487 18.4045 349.08 18.9654 349.912 19.4821C350.756 19.9863 352.042 20.5472 353.769 21.1648C356.668 22.1983 358.659 23.3075 359.743 24.4923C360.84 25.6771 361.388 27.2148 361.388 29.1054Z" fill="#3D3E3F"/>
<path d="M373.598 36.8381C370.599 36.8381 368.273 35.918 366.622 34.0778C364.983 32.225 364.164 29.6096 364.164 26.2317C364.164 22.7655 364.996 20.0871 366.66 18.1965C368.336 16.3059 370.718 15.3606 373.806 15.3606C374.802 15.3606 375.798 15.4677 376.794 15.682C377.789 15.8963 378.571 16.1483 379.138 16.4382L378.174 19.104C377.481 18.8267 376.724 18.5999 375.905 18.4234C375.086 18.2343 374.361 18.1398 373.731 18.1398C369.521 18.1398 367.416 20.8245 367.416 26.1939C367.416 28.7399 367.927 30.6936 368.947 32.0548C369.981 33.4161 371.506 34.0967 373.523 34.0967C375.25 34.0967 377.02 33.7249 378.835 32.9812V35.7604C377.449 36.4789 375.703 36.8381 373.598 36.8381Z" fill="#3D3E3F"/>
<path d="M396.497 36.4599V23.0553C396.497 21.3664 396.113 20.106 395.344 19.2741C394.575 18.4422 393.371 18.0263 391.733 18.0263C389.552 18.0263 387.958 18.6187 386.95 19.8035C385.954 20.9882 385.456 22.9293 385.456 25.6266V36.4599H382.317V7.04175H385.456V15.9466C385.456 17.0179 385.406 17.9065 385.305 18.6124H385.494C386.111 17.6166 386.987 16.8352 388.122 16.268C389.269 15.6882 390.573 15.3983 392.035 15.3983C394.569 15.3983 396.466 16.0033 397.726 17.2133C398.999 18.4107 399.636 20.3202 399.636 22.9419V36.4599H396.497ZM423.987 26.0803C423.987 29.4582 423.136 32.0989 421.435 34.0021C419.733 35.8928 417.382 36.838 414.382 36.838C412.53 36.838 410.885 36.4031 409.448 35.5335C408.011 34.6638 406.902 33.416 406.12 31.79C405.339 30.1641 404.948 28.2609 404.948 26.0803C404.948 22.7024 405.793 20.0744 407.482 18.1964C409.171 16.3058 411.515 15.3605 414.515 15.3605C417.414 15.3605 419.714 16.3247 421.416 18.2531C423.13 20.1816 423.987 22.7906 423.987 26.0803ZM408.2 26.0803C408.2 28.7272 408.73 30.744 409.788 32.1304C410.847 33.5169 412.404 34.21 414.458 34.21C416.513 34.21 418.069 33.5231 419.128 32.1492C420.199 30.7628 420.735 28.7398 420.735 26.0803C420.735 23.4461 420.199 21.4483 419.128 20.087C418.069 18.7132 416.5 18.0263 414.42 18.0263C412.366 18.0263 410.816 18.7006 409.769 20.0492C408.723 21.3979 408.2 23.4082 408.2 26.0803ZM447.393 26.0803C447.393 29.4582 446.542 32.0989 444.84 34.0021C443.139 35.8928 440.788 36.838 437.788 36.838C435.936 36.838 434.291 36.4031 432.854 35.5335C431.417 34.6638 430.308 33.416 429.526 31.79C428.745 30.1641 428.354 28.2609 428.354 26.0803C428.354 22.7024 429.199 20.0744 430.888 18.1964C432.577 16.3058 434.921 15.3605 437.921 15.3605C440.82 15.3605 443.12 16.3247 444.822 18.2531C446.536 20.1816 447.393 22.7906 447.393 26.0803ZM431.606 26.0803C431.606 28.7272 432.135 30.744 433.194 32.1304C434.253 33.5169 435.81 34.21 437.864 34.21C439.919 34.21 441.475 33.5231 442.534 32.1492C443.605 30.7628 444.141 28.7398 444.141 26.0803C444.141 23.4461 443.605 21.4483 442.534 20.087C441.475 18.7132 439.906 18.0263 437.826 18.0263C435.772 18.0263 434.221 18.7006 433.175 20.0492C432.129 21.3979 431.606 23.4082 431.606 26.0803ZM456.052 36.4599H452.913V7.04175H456.052V36.4599ZM490.65 26.0803C490.65 29.4582 489.8 32.0989 488.098 34.0021C486.396 35.8928 484.046 36.838 481.046 36.838C479.193 36.838 477.548 36.4031 476.111 35.5335C474.675 34.6638 473.565 33.416 472.784 31.79C472.002 30.1641 471.612 28.2609 471.612 26.0803C471.612 22.7024 472.456 20.0744 474.145 18.1964C475.834 16.3058 478.178 15.3605 481.178 15.3605C484.077 15.3605 486.377 16.3247 488.079 18.2531C489.793 20.1816 490.65 22.7906 490.65 26.0803ZM474.864 26.0803C474.864 28.7272 475.393 30.744 476.452 32.1304C477.51 33.5169 479.067 34.21 481.122 34.21C483.176 34.21 484.733 33.5231 485.791 32.1492C486.863 30.7628 487.398 28.7398 487.398 26.0803C487.398 23.4461 486.863 21.4483 485.791 20.087C484.733 18.7132 483.163 18.0263 481.084 18.0263C479.029 18.0263 477.479 18.7006 476.433 20.0492C475.387 21.3979 474.864 23.4082 474.864 26.0803Z" fill="#3D3E3F"/>
<path d="M503.657 18.1777H498.382V36.4601H495.244V18.1777H491.538V16.7597L495.244 15.6254V14.4721C495.244 9.37998 497.469 6.83398 501.918 6.83398C503.014 6.83398 504.3 7.05448 505.775 7.49568L504.962 10.0102C503.752 9.61948 502.718 9.42408 501.861 9.42408C500.676 9.42408 499.8 9.82118 499.233 10.6152C498.666 11.3967 498.382 12.6571 498.382 14.3965V15.7388H503.657V18.1777Z" fill="#3D3E3F"/>
<path d="M345.79 45.1791H353.598C357.266 45.1791 359.919 45.7274 361.558 46.8239C363.197 47.9205 364.016 49.6535 364.016 52.0231C364.016 53.6617 363.556 55.0166 362.636 56.088C361.728 57.1467 360.398 57.8337 358.646 58.1488V58.3378C362.844 59.0563 364.942 61.262 364.942 64.955C364.942 67.4254 364.104 69.3539 362.428 70.7403C360.764 72.1268 358.432 72.82 355.432 72.82H345.79V45.1791ZM349.004 57.0144H354.298C356.567 57.0144 358.199 56.6615 359.195 55.9556C360.19 55.2372 360.688 54.0335 360.688 52.3445C360.688 50.7942 360.134 49.6788 359.025 48.9981C357.915 48.3049 356.151 47.9583 353.731 47.9583H349.004V57.0144ZM349.004 59.7369V70.0786H354.771C357.002 70.0786 358.678 69.6501 359.8 68.793C360.934 67.9233 361.501 66.5683 361.501 64.7281C361.501 63.014 360.921 61.7535 359.762 60.9469C358.615 60.1402 356.863 59.7369 354.506 59.7369H349.004ZM373.374 52.0988V65.5411C373.374 67.2301 373.759 68.4905 374.528 69.3224C375.297 70.1542 376.5 70.5702 378.139 70.5702C380.307 70.5702 381.888 69.9778 382.884 68.793C383.893 67.6082 384.397 65.6734 384.397 62.9888V52.0988H387.535V72.82H384.945L384.491 70.0408H384.321C383.678 71.0617 382.783 71.8432 381.636 72.3852C380.502 72.9271 379.204 73.1981 377.742 73.1981C375.221 73.1981 373.33 72.5994 372.07 71.402C370.822 70.2046 370.198 68.2888 370.198 65.6545V52.0988H373.374ZM407.576 67.167C407.576 69.0955 406.857 70.5828 405.42 71.6289C403.984 72.6751 401.967 73.1981 399.37 73.1981C396.623 73.1981 394.48 72.7633 392.942 71.8936V68.982C393.938 69.4862 395.003 69.8832 396.137 70.1731C397.284 70.463 398.387 70.608 399.446 70.608C401.085 70.608 402.345 70.3496 403.227 69.8328C404.11 69.3034 404.551 68.5031 404.551 67.4317C404.551 66.6251 404.198 65.9381 403.492 65.3709C402.799 64.7912 401.438 64.1105 399.408 63.3291C397.48 62.6106 396.106 61.9867 395.287 61.4574C394.48 60.9154 393.875 60.3041 393.472 59.6234C393.081 58.9428 392.886 58.1299 392.886 57.1845C392.886 55.4956 393.573 54.1658 394.946 53.1953C396.32 52.2122 398.205 51.7206 400.599 51.7206C402.83 51.7206 405.011 52.1744 407.141 53.0819L406.025 55.6342C403.946 54.7771 402.061 54.3486 400.372 54.3486C398.885 54.3486 397.763 54.5818 397.007 55.0481C396.251 55.5145 395.873 56.1573 395.873 56.9766C395.873 57.5312 396.011 58.0038 396.289 58.3945C396.579 58.7853 397.039 59.1571 397.669 59.51C398.299 59.8629 399.509 60.3734 401.299 61.0414C403.757 61.9363 405.414 62.8375 406.271 63.745C407.141 64.6525 407.576 65.7932 407.576 67.167ZM415.838 72.82H412.699V52.0988H415.838V72.82ZM412.435 46.4836C412.435 45.7652 412.611 45.2421 412.964 44.9144C413.317 44.5741 413.758 44.4039 414.287 44.4039C414.792 44.4039 415.226 44.5741 415.592 44.9144C415.958 45.2547 416.14 45.7778 416.14 46.4836C416.14 47.1894 415.958 47.7188 415.592 48.0717C415.226 48.412 414.792 48.5822 414.287 48.5822C413.758 48.5822 413.317 48.412 412.964 48.0717C412.611 47.7188 412.435 47.1894 412.435 46.4836ZM436.672 72.82V59.4155C436.672 57.7265 436.288 56.4661 435.519 55.6342C434.75 54.8024 433.547 54.3864 431.908 54.3864C429.74 54.3864 428.152 54.9725 427.144 56.1447C426.135 57.3169 425.631 59.2516 425.631 61.9489V72.82H422.493V52.0988H425.045L425.556 54.9347H425.707C426.35 53.9138 427.251 53.126 428.41 52.5714C429.57 52.0042 430.862 51.7206 432.286 51.7206C434.782 51.7206 436.66 52.3256 437.92 53.5356C439.181 54.733 439.811 56.6552 439.811 59.302V72.82H436.672ZM455.03 73.1981C451.968 73.1981 449.548 72.2654 447.77 70.4C446.006 68.5346 445.124 65.9444 445.124 62.6295C445.124 59.2894 445.943 56.6363 447.581 54.67C449.233 52.7038 451.445 51.7206 454.217 51.7206C456.814 51.7206 458.868 52.5777 460.381 54.2919C461.893 55.9934 462.65 58.2433 462.65 61.0414V63.0266H448.375C448.438 65.4592 449.05 67.3057 450.209 68.5661C451.382 69.8265 453.026 70.4567 455.144 70.4567C457.375 70.4567 459.581 69.9904 461.761 69.0577V71.8558C460.652 72.3347 459.599 72.6751 458.604 72.8767C457.621 73.091 456.43 73.1981 455.03 73.1981ZM454.18 54.3486C452.516 54.3486 451.186 54.8906 450.19 55.9745C449.207 57.0585 448.628 58.5584 448.451 60.4742H459.284C459.284 58.4954 458.843 56.9829 457.961 55.9367C457.079 54.878 455.818 54.3486 454.18 54.3486ZM481.386 67.167C481.386 69.0955 480.667 70.5828 479.23 71.6289C477.794 72.6751 475.777 73.1981 473.18 73.1981C470.433 73.1981 468.29 72.7633 466.752 71.8936V68.982C467.748 69.4862 468.813 69.8832 469.947 70.1731C471.094 70.463 472.197 70.608 473.256 70.608C474.895 70.608 476.155 70.3496 477.037 69.8328C477.92 69.3034 478.361 68.5031 478.361 67.4317C478.361 66.6251 478.008 65.9381 477.302 65.3709C476.609 64.7912 475.248 64.1105 473.218 63.3291C471.29 62.6106 469.916 61.9867 469.097 61.4574C468.29 60.9154 467.685 60.3041 467.282 59.6234C466.891 58.9428 466.696 58.1299 466.696 57.1845C466.696 55.4956 467.383 54.1658 468.756 53.1953C470.13 52.2122 472.015 51.7206 474.409 51.7206C476.64 51.7206 478.821 52.1744 480.951 53.0819L479.835 55.6342C477.756 54.7771 475.871 54.3486 474.182 54.3486C472.695 54.3486 471.573 54.5818 470.817 55.0481C470.061 55.5145 469.683 56.1573 469.683 56.9766C469.683 57.5312 469.821 58.0038 470.099 58.3945C470.389 58.7853 470.849 59.1571 471.479 59.51C472.109 59.8629 473.319 60.3734 475.109 61.0414C477.567 61.9363 479.224 62.8375 480.081 63.745C480.951 64.6525 481.386 65.7932 481.386 67.167ZM499.876 67.167C499.876 69.0955 499.158 70.5828 497.721 71.6289C496.284 72.6751 494.267 73.1981 491.671 73.1981C488.923 73.1981 486.78 72.7633 485.243 71.8936V68.982C486.238 69.4862 487.303 69.8832 488.438 70.1731C489.585 70.463 490.688 70.608 491.746 70.608C493.385 70.608 494.645 70.3496 495.528 69.8328C496.41 69.3034 496.851 68.5031 496.851 67.4317C496.851 66.6251 496.498 65.9381 495.792 65.3709C495.099 64.7912 493.738 64.1105 491.709 63.3291C489.78 62.6106 488.406 61.9867 487.587 61.4574C486.78 60.9154 486.175 60.3041 485.772 59.6234C485.381 58.9428 485.186 58.1299 485.186 57.1845C485.186 55.4956 485.873 54.1658 487.247 53.1953C488.621 52.2122 490.505 51.7206 492.9 51.7206C495.131 51.7206 497.311 52.1744 499.441 53.0819L498.326 55.6342C496.246 54.7771 494.362 54.3486 492.673 54.3486C491.186 54.3486 490.064 54.5818 489.307 55.0481C488.551 55.5145 488.173 56.1573 488.173 56.9766C488.173 57.5312 488.312 58.0038 488.589 58.3945C488.879 58.7853 489.339 59.1571 489.969 59.51C490.599 59.8629 491.809 60.3734 493.599 61.0414C496.057 61.9363 497.714 62.8375 498.572 63.745C499.441 64.6525 499.876 65.7932 499.876 67.167Z" fill="#3D3E3F"/>
</svg>
